<svg width="645" height="646" viewBox="0 0 645 646" fill="none" xmlns="http://www.w3.org/2000/svg">
<path fill-rule="evenodd" clip-rule="evenodd" d="M269.058 85.2448H277.694C277.453 84.962 277.241 84.6558 277.063 84.3302C276.796 83.8426 276.987 83.2374 277.489 82.9786C277.992 82.7198 278.616 82.9051 278.883 83.3928C279.512 84.5401 280.72 85.2449 282.059 85.2449C284.614 85.2449 286.685 83.2352 286.685 80.7563V69.7316C286.685 67.2629 284.604 65.243 282.059 65.243C279.931 65.243 277.632 66.8505 277.632 69.0428C277.632 69.901 277.942 70.7016 278.526 71.3463C278.902 71.7606 278.86 72.392 278.433 72.7565C278.006 73.1212 277.356 73.0809 276.98 72.6666C276.06 71.6522 275.558 70.3382 275.571 68.9873C274.502 69.6032 273.707 70.6244 273.416 71.8287C273.064 71.7451 272.698 71.7003 272.32 71.7003C269.824 71.7003 267.761 73.6494 267.696 76.0711C267.723 77.0733 268.201 78.0093 268.991 78.6516C269.427 79.0054 269.485 79.635 269.12 80.0579C268.756 80.4809 268.107 80.5367 267.671 80.183C266.679 79.3775 265.995 78.265 265.746 77.0342C264.754 77.859 264.123 79.082 264.123 80.4414C264.123 83.0875 266.326 85.2448 269.058 85.2448ZM300.407 63.3189C299.915 63.0449 299.746 62.4362 300.028 61.9594C300.311 61.4826 300.938 61.3182 301.429 61.5921C310.448 66.6217 316 75.9053 316 86.0001C316 101.54 303.016 114.138 287 114.138C286.051 114.138 285.102 114.093 284.157 114.003L285.525 115.288C285.932 115.672 285.941 116.303 285.545 116.698C285.149 117.093 284.498 117.102 284.091 116.718L280.385 113.236C279.883 112.761 280.01 111.956 280.618 111.641L284.931 109.02C285.411 108.729 286.044 108.871 286.344 109.337C286.644 109.803 286.498 110.417 286.018 110.708L283.939 111.971C284.956 112.082 285.977 112.138 287 112.138C301.878 112.138 313.939 100.436 313.939 86.0001C313.939 76.6198 308.789 67.9935 300.407 63.3189ZM288.475 56.7122C288.068 56.3281 288.059 55.6967 288.455 55.3019C288.851 54.9071 289.502 54.8984 289.909 55.2824L293.615 58.7642C294.117 59.2386 293.99 60.0442 293.382 60.3594L289.069 62.9796C288.589 63.2709 287.956 63.1293 287.656 62.6632C287.356 62.1972 287.502 61.5832 287.982 61.292L290.066 60.0258C289.046 59.9137 288.026 59.8622 287 59.8622C272.122 59.8622 260.061 71.5644 260.061 86.0001C260.061 95.3804 265.211 104.007 273.593 108.681C274.084 108.955 274.254 109.564 273.971 110.041C273.689 110.518 273.062 110.682 272.57 110.408C263.552 105.379 258 96.0948 258 86.0001C258 70.4601 270.984 57.862 287 57.862C287.95 57.862 288.901 57.9108 289.846 58.0003L288.475 56.7122ZM269.058 86.7552C266.326 86.7552 264.123 88.9125 264.123 91.5589C264.123 92.9181 264.754 94.1413 265.746 94.966C265.995 93.7351 266.679 92.6227 267.671 91.8172C268.107 91.4634 268.755 91.5193 269.12 91.9422C269.485 92.3651 269.427 92.9946 268.991 93.3486C268.201 93.991 267.723 94.9268 267.696 95.929C267.761 98.3506 269.823 100.3 272.32 100.3C272.698 100.3 273.064 100.255 273.416 100.171C273.707 101.375 274.502 102.397 275.571 103.013C275.558 101.662 276.06 100.348 276.98 99.3334C277.356 98.9191 278.007 98.8789 278.433 99.2435C278.86 99.608 278.902 100.24 278.526 100.654C277.942 101.298 277.632 102.099 277.632 102.957C277.632 105.15 279.931 106.757 282.059 106.757C284.604 106.757 286.685 104.737 286.685 102.268V91.2437C286.685 88.7648 284.614 86.7551 282.059 86.7551C280.72 86.7551 279.512 87.4599 278.883 88.6071C278.616 89.0948 277.992 89.2802 277.489 89.0213C276.987 88.7624 276.796 88.1572 277.063 87.6697C277.241 87.3441 277.453 87.0378 277.694 86.7551L269.058 86.7552ZM289.262 65.9981V76.5584C294.637 76.5584 298.993 80.7851 298.993 86C298.993 91.2149 294.637 95.4416 289.262 95.4416V106.002H292.052L293.367 102.688C295.187 102.268 296.926 101.568 298.52 100.615L301.866 102.058L305.812 98.2294L304.325 94.9812C305.306 93.4354 306.027 91.7488 306.46 89.9827L309.877 88.7069V83.293L306.461 82.0175C306.028 80.2511 305.306 78.5637 304.325 77.0177L305.812 73.7706L301.866 69.9424L298.519 71.385C296.926 70.4332 295.187 69.733 293.367 69.3127L292.052 65.9981H289.262ZM281.979 94.9915C282.39 94.6118 282.406 93.9802 282.015 93.5812C281.623 93.182 280.973 93.1663 280.561 93.5461C279.652 94.3816 278.363 94.6974 277.154 94.3829C275.811 94.0339 274.791 92.9635 274.543 91.6355C274.443 91.094 273.909 90.7337 273.351 90.8307C272.793 90.9277 272.422 91.4455 272.522 91.9871C272.913 94.0799 274.504 95.762 276.622 96.3127C278.528 96.8081 280.547 96.307 281.979 94.9915ZM281.979 77.0084C282.39 77.3881 282.406 78.0196 282.015 78.4187C281.623 78.8178 280.973 78.8336 280.561 78.4538C279.652 77.6182 278.363 77.3026 277.154 77.617C275.811 77.966 274.791 79.0364 274.543 80.3644C274.443 80.9059 273.909 81.2662 273.351 81.1692C272.793 81.0722 272.422 80.5544 272.522 80.0128C272.913 77.92 274.504 76.2378 276.622 75.6872C278.528 75.1919 280.547 75.693 281.979 77.0084Z" fill="#FF3654"/>
<path d="M241.057 129.4H242.497V142H240.841V131.2L238.159 131.992L237.745 130.552L241.057 129.4ZM253.161 140.452C252.309 141.64 251.115 142.234 249.579 142.234C248.043 142.234 246.849 141.64 245.997 140.452C245.145 139.264 244.719 137.68 244.719 135.7C244.719 133.72 245.145 132.136 245.997 130.948C246.849 129.76 248.043 129.166 249.579 129.166C251.115 129.166 252.309 129.76 253.161 130.948C254.013 132.136 254.439 133.72 254.439 135.7C254.439 137.68 254.013 139.264 253.161 140.452ZM247.221 139.318C247.773 140.17 248.559 140.596 249.579 140.596C250.599 140.596 251.385 140.17 251.937 139.318C252.501 138.466 252.783 137.26 252.783 135.7C252.783 134.14 252.501 132.934 251.937 132.082C251.385 131.218 250.599 130.786 249.579 130.786C248.559 130.786 247.773 131.212 247.221 132.064C246.669 132.916 246.393 134.128 246.393 135.7C246.393 137.26 246.669 138.466 247.221 139.318ZM260.054 134.314C261.242 134.314 262.244 134.668 263.06 135.376C263.888 136.072 264.302 137.038 264.302 138.274C264.302 139.498 263.882 140.464 263.042 141.172C262.202 141.88 261.182 142.234 259.982 142.234C259.022 142.234 258.164 142.006 257.408 141.55C256.652 141.082 256.124 140.41 255.824 139.534L257.246 138.724C257.414 139.336 257.738 139.804 258.218 140.128C258.698 140.44 259.286 140.596 259.982 140.596C260.774 140.596 261.416 140.392 261.908 139.984C262.4 139.576 262.646 139.006 262.646 138.274C262.646 137.542 262.4 136.972 261.908 136.564C261.416 136.144 260.786 135.934 260.018 135.934H256.454L256.922 129.4H263.816V130.966H258.434L258.218 134.314H260.054ZM273.903 140.452C273.051 141.64 271.857 142.234 270.321 142.234C268.785 142.234 267.591 141.64 266.739 140.452C265.887 139.264 265.461 137.68 265.461 135.7C265.461 133.72 265.887 132.136 266.739 130.948C267.591 129.76 268.785 129.166 270.321 129.166C271.857 129.166 273.051 129.76 273.903 130.948C274.755 132.136 275.181 133.72 275.181 135.7C275.181 137.68 274.755 139.264 273.903 140.452ZM267.963 139.318C268.515 140.17 269.301 140.596 270.321 140.596C271.341 140.596 272.127 140.17 272.679 139.318C273.243 138.466 273.525 137.26 273.525 135.7C273.525 134.14 273.243 132.934 272.679 132.082C272.127 131.218 271.341 130.786 270.321 130.786C269.301 130.786 268.515 131.212 267.963 132.064C267.411 132.916 267.135 134.128 267.135 135.7C267.135 137.26 267.411 138.466 267.963 139.318ZM284.773 134.944V136.438H281.641V139.57H280.147V136.438H277.033V134.944H280.147V131.83H281.641V134.944H284.773ZM295.716 142.234C294.54 142.234 293.532 141.958 292.692 141.406C291.864 140.854 291.282 140.098 290.946 139.138L292.386 138.31C292.878 139.834 294 140.596 295.752 140.596C296.616 140.596 297.276 140.422 297.732 140.074C298.188 139.714 298.416 139.24 298.416 138.652C298.416 138.052 298.188 137.602 297.732 137.302C297.276 137.002 296.514 136.684 295.446 136.348C294.918 136.18 294.516 136.048 294.24 135.952C293.964 135.844 293.616 135.688 293.196 135.484C292.788 135.268 292.482 135.052 292.278 134.836C292.074 134.608 291.888 134.314 291.72 133.954C291.564 133.594 291.486 133.186 291.486 132.73C291.486 131.638 291.87 130.774 292.638 130.138C293.406 129.49 294.342 129.166 295.446 129.166C296.442 129.166 297.306 129.418 298.038 129.922C298.782 130.426 299.34 131.092 299.712 131.92L298.308 132.73C297.768 131.434 296.814 130.786 295.446 130.786C294.762 130.786 294.21 130.954 293.79 131.29C293.37 131.626 293.16 132.082 293.16 132.658C293.16 133.21 293.358 133.63 293.754 133.918C294.15 134.206 294.834 134.506 295.806 134.818C296.154 134.926 296.4 135.004 296.544 135.052C296.688 135.1 296.91 135.184 297.21 135.304C297.522 135.424 297.75 135.52 297.894 135.592C298.038 135.664 298.23 135.766 298.47 135.898C298.722 136.03 298.908 136.156 299.028 136.276C299.148 136.396 299.286 136.546 299.442 136.726C299.61 136.894 299.73 137.068 299.802 137.248C299.874 137.428 299.934 137.638 299.982 137.878C300.042 138.106 300.072 138.352 300.072 138.616C300.072 139.72 299.67 140.602 298.866 141.262C298.062 141.91 297.012 142.234 295.716 142.234ZM309.506 142H307.562L303.458 137.734V142H301.892V129.4H303.458V136.978L307.346 133H309.362L305.06 137.356L309.506 142ZM311.754 131.362C311.454 131.362 311.202 131.26 310.998 131.056C310.794 130.852 310.692 130.606 310.692 130.318C310.692 130.03 310.794 129.784 310.998 129.58C311.202 129.364 311.454 129.256 311.754 129.256C312.042 129.256 312.288 129.364 312.492 129.58C312.696 129.784 312.798 130.03 312.798 130.318C312.798 130.606 312.696 130.852 312.492 131.056C312.288 131.26 312.042 131.362 311.754 131.362ZM310.962 142V133H312.528V142H310.962ZM314.917 142V128.86H316.483V142H314.917ZM318.873 142V128.86H320.439V142H318.873ZM323.926 138.22C324.082 139.024 324.448 139.648 325.024 140.092C325.612 140.536 326.332 140.758 327.184 140.758C328.372 140.758 329.236 140.32 329.776 139.444L331.108 140.2C330.232 141.556 328.912 142.234 327.148 142.234C325.72 142.234 324.556 141.79 323.656 140.902C322.768 140.002 322.324 138.868 322.324 137.5C322.324 136.144 322.762 135.016 323.638 134.116C324.514 133.216 325.648 132.766 327.04 132.766C328.36 132.766 329.434 133.234 330.262 134.17C331.102 135.094 331.522 136.21 331.522 137.518C331.522 137.746 331.504 137.98 331.468 138.22H323.926ZM327.04 134.242C326.2 134.242 325.504 134.482 324.952 134.962C324.4 135.43 324.058 136.06 323.926 136.852H329.938C329.806 136 329.47 135.352 328.93 134.908C328.39 134.464 327.76 134.242 327.04 134.242ZM340.756 129.4H342.322V142H340.756V140.452C339.976 141.64 338.842 142.234 337.354 142.234C336.094 142.234 335.02 141.778 334.132 140.866C333.244 139.942 332.8 138.82 332.8 137.5C332.8 136.18 333.244 135.064 334.132 134.152C335.02 133.228 336.094 132.766 337.354 132.766C338.842 132.766 339.976 133.36 340.756 134.548V129.4ZM337.552 140.722C338.464 140.722 339.226 140.416 339.838 139.804C340.45 139.18 340.756 138.412 340.756 137.5C340.756 136.588 340.45 135.826 339.838 135.214C339.226 134.59 338.464 134.278 337.552 134.278C336.652 134.278 335.896 134.59 335.284 135.214C334.672 135.826 334.366 136.588 334.366 137.5C334.366 138.412 334.672 139.18 335.284 139.804C335.896 140.416 336.652 140.722 337.552 140.722ZM250.261 151.4C251.977 151.4 253.399 152.012 254.527 153.236C255.667 154.448 256.237 155.936 256.237 157.7C256.237 159.464 255.667 160.958 254.527 162.182C253.399 163.394 251.977 164 250.261 164H245.347V151.4H250.261ZM250.261 162.416C251.545 162.416 252.595 161.966 253.411 161.066C254.227 160.166 254.635 159.044 254.635 157.7C254.635 156.356 254.227 155.234 253.411 154.334C252.595 153.434 251.545 152.984 250.261 152.984H247.021V162.416H250.261ZM259.203 160.22C259.359 161.024 259.725 161.648 260.301 162.092C260.889 162.536 261.609 162.758 262.461 162.758C263.649 162.758 264.513 162.32 265.053 161.444L266.385 162.2C265.509 163.556 264.189 164.234 262.425 164.234C260.997 164.234 259.833 163.79 258.933 162.902C258.045 162.002 257.601 160.868 257.601 159.5C257.601 158.144 258.039 157.016 258.915 156.116C259.791 155.216 260.925 154.766 262.317 154.766C263.637 154.766 264.711 155.234 265.539 156.17C266.379 157.094 266.799 158.21 266.799 159.518C266.799 159.746 266.781 159.98 266.745 160.22H259.203ZM262.317 156.242C261.477 156.242 260.781 156.482 260.229 156.962C259.677 157.43 259.335 158.06 259.203 158.852H265.215C265.083 158 264.747 157.352 264.207 156.908C263.667 156.464 263.037 156.242 262.317 156.242ZM274.548 155H276.24L272.64 164H270.804L267.204 155H268.896L271.722 162.326L274.548 155ZM278.31 160.22C278.466 161.024 278.832 161.648 279.408 162.092C279.996 162.536 280.716 162.758 281.568 162.758C282.756 162.758 283.62 162.32 284.16 161.444L285.492 162.2C284.616 163.556 283.296 164.234 281.532 164.234C280.104 164.234 278.94 163.79 278.04 162.902C277.152 162.002 276.708 160.868 276.708 159.5C276.708 158.144 277.146 157.016 278.022 156.116C278.898 155.216 280.032 154.766 281.424 154.766C282.744 154.766 283.818 155.234 284.646 156.17C285.486 157.094 285.906 158.21 285.906 159.518C285.906 159.746 285.888 159.98 285.852 160.22H278.31ZM281.424 156.242C280.584 156.242 279.888 156.482 279.336 156.962C278.784 157.43 278.442 158.06 278.31 158.852H284.322C284.19 158 283.854 157.352 283.314 156.908C282.774 156.464 282.144 156.242 281.424 156.242ZM287.707 164V150.86H289.273V164H287.707ZM299.258 162.866C298.334 163.778 297.212 164.234 295.892 164.234C294.572 164.234 293.45 163.778 292.526 162.866C291.614 161.954 291.158 160.832 291.158 159.5C291.158 158.168 291.614 157.046 292.526 156.134C293.45 155.222 294.572 154.766 295.892 154.766C297.212 154.766 298.334 155.222 299.258 156.134C300.182 157.046 300.644 158.168 300.644 159.5C300.644 160.832 300.182 161.954 299.258 162.866ZM295.892 162.704C296.792 162.704 297.548 162.398 298.16 161.786C298.772 161.174 299.078 160.412 299.078 159.5C299.078 158.588 298.772 157.826 298.16 157.214C297.548 156.602 296.792 156.296 295.892 156.296C295.004 156.296 294.254 156.602 293.642 157.214C293.03 157.826 292.724 158.588 292.724 159.5C292.724 160.412 293.03 161.174 293.642 161.786C294.254 162.398 295.004 162.704 295.892 162.704ZM307.458 154.766C308.718 154.766 309.792 155.228 310.68 156.152C311.568 157.064 312.012 158.18 312.012 159.5C312.012 160.82 311.568 161.942 310.68 162.866C309.792 163.778 308.718 164.234 307.458 164.234C305.97 164.234 304.836 163.64 304.056 162.452V167.6H302.49V155H304.056V156.548C304.836 155.36 305.97 154.766 307.458 154.766ZM307.26 162.722C308.16 162.722 308.916 162.416 309.528 161.804C310.14 161.18 310.446 160.412 310.446 159.5C310.446 158.588 310.14 157.826 309.528 157.214C308.916 156.59 308.16 156.278 307.26 156.278C306.348 156.278 305.586 156.59 304.974 157.214C304.362 157.826 304.056 158.588 304.056 159.5C304.056 160.412 304.362 161.18 304.974 161.804C305.586 162.416 306.348 162.722 307.26 162.722ZM314.978 160.22C315.134 161.024 315.5 161.648 316.076 162.092C316.664 162.536 317.384 162.758 318.236 162.758C319.424 162.758 320.288 162.32 320.828 161.444L322.16 162.2C321.284 163.556 319.964 164.234 318.2 164.234C316.772 164.234 315.608 163.79 314.708 162.902C313.82 162.002 313.376 160.868 313.376 159.5C313.376 158.144 313.814 157.016 314.69 156.116C315.566 155.216 316.7 154.766 318.092 154.766C319.412 154.766 320.486 155.234 321.314 156.17C322.154 157.094 322.574 158.21 322.574 159.518C322.574 159.746 322.556 159.98 322.52 160.22H314.978ZM318.092 156.242C317.252 156.242 316.556 156.482 316.004 156.962C315.452 157.43 315.11 158.06 314.978 158.852H320.99C320.858 158 320.522 157.352 319.982 156.908C319.442 156.464 318.812 156.242 318.092 156.242ZM325.941 156.512C326.457 155.396 327.393 154.838 328.749 154.838V156.476C327.981 156.44 327.321 156.644 326.769 157.088C326.217 157.532 325.941 158.246 325.941 159.23V164H324.375V155H325.941V156.512ZM331.297 157.43C331.297 157.778 331.471 158.06 331.819 158.276C332.167 158.48 332.587 158.648 333.079 158.78C333.571 158.9 334.063 159.044 334.555 159.212C335.047 159.368 335.467 159.644 335.815 160.04C336.163 160.424 336.337 160.922 336.337 161.534C336.337 162.35 336.019 163.004 335.383 163.496C334.759 163.988 333.955 164.234 332.971 164.234C332.095 164.234 331.345 164.042 330.721 163.658C330.097 163.274 329.653 162.764 329.389 162.128L330.739 161.354C330.883 161.786 331.153 162.128 331.549 162.38C331.945 162.632 332.419 162.758 332.971 162.758C333.487 162.758 333.913 162.662 334.249 162.47C334.585 162.266 334.753 161.954 334.753 161.534C334.753 161.186 334.579 160.91 334.231 160.706C333.883 160.49 333.463 160.322 332.971 160.202C332.479 160.07 331.987 159.92 331.495 159.752C331.003 159.584 330.583 159.308 330.235 158.924C329.887 158.54 329.713 158.048 329.713 157.448C329.713 156.668 330.013 156.026 330.613 155.522C331.225 155.018 331.987 154.766 332.899 154.766C333.631 154.766 334.279 154.934 334.843 155.27C335.419 155.594 335.851 156.05 336.139 156.638L334.825 157.376C334.501 156.608 333.859 156.224 332.899 156.224C332.455 156.224 332.077 156.332 331.765 156.548C331.453 156.752 331.297 157.046 331.297 157.43Z" fill="black"/>
<path d="M527 241.416C517.856 241.416 510.416 248.856 510.416 258C510.416 267.144 517.856 274.584 527 274.584C536.145 274.584 543.584 267.145 543.584 258C543.584 248.855 536.145 241.416 527 241.416ZM513.355 258L519.868 251.487L522.271 253.89L518.161 258L522.271 262.111L519.868 264.514L513.355 258ZM525.016 266.276L521.936 264.839L528.984 249.724L532.064 251.16L525.016 266.276ZM534.132 264.514L531.729 262.111L535.839 258.001L531.729 253.89L534.132 251.487L540.645 258.001L534.132 264.514Z" fill="#12AFAF"/>
<path d="M554.525 254.191C553.023 254.003 551.785 252.924 551.394 251.461C551.003 250.001 551.536 248.449 552.742 247.537L553.927 246.639L550.302 240.361L548.928 240.941C547.535 241.528 545.924 241.213 544.855 240.144C543.786 239.075 543.472 237.465 544.059 236.072L544.639 234.698L538.361 231.073L537.463 232.258C536.551 233.464 534.999 233.996 533.538 233.606C532.076 233.215 530.997 231.977 530.809 230.475L530.625 229H523.375L523.191 230.475C523.003 231.977 521.924 233.215 520.461 233.606C519.001 233.997 517.449 233.464 516.537 232.258L515.639 231.073L509.361 234.698L509.941 236.072C510.528 237.465 510.214 239.076 509.144 240.145C508.075 241.214 506.465 241.528 505.072 240.941L503.698 240.361L500.073 246.639L501.258 247.537C502.464 248.449 502.997 250.001 502.606 251.462C502.215 252.924 500.977 254.003 499.475 254.191L498 254.375V261.625L499.475 261.809C500.977 261.997 502.215 263.076 502.606 264.539C502.997 265.999 502.464 267.551 501.258 268.463L500.073 269.361L503.698 275.639L505.072 275.059C506.465 274.472 508.076 274.787 509.145 275.856C510.214 276.925 510.528 278.535 509.941 279.928L509.361 281.302L515.639 284.927L516.537 283.742C517.449 282.536 519.001 282.004 520.462 282.394C521.924 282.785 523.003 284.023 523.191 285.525L523.375 287H530.625L530.809 285.525C530.997 284.023 532.076 282.785 533.539 282.394C534.999 282.003 536.551 282.536 537.463 283.742L538.361 284.927L544.639 281.302L544.059 279.928C543.472 278.535 543.786 276.924 544.856 275.855C545.925 274.786 547.535 274.472 548.928 275.059L550.302 275.639L553.927 269.361L552.742 268.463C551.536 267.551 551.003 265.999 551.394 264.538C551.785 263.076 553.023 261.997 554.525 261.809L556 261.625V254.375L554.525 254.191ZM527 277.982C515.982 277.982 507.018 269.018 507.018 258C507.018 246.982 515.982 238.018 527 238.018C538.018 238.018 546.982 246.982 546.982 258C546.982 269.018 538.018 277.982 527 277.982Z" fill="#12AFAF"/>
<path d="M464.236 323L460.618 310.4H462.382L465.262 320.768L468.322 310.4H470.014L473.074 320.768L475.954 310.4H477.718L474.1 323H472.156L469.168 312.938L466.18 323H464.236ZM485.88 321.866C484.956 322.778 483.834 323.234 482.514 323.234C481.194 323.234 480.072 322.778 479.148 321.866C478.236 320.954 477.78 319.832 477.78 318.5C477.78 317.168 478.236 316.046 479.148 315.134C480.072 314.222 481.194 313.766 482.514 313.766C483.834 313.766 484.956 314.222 485.88 315.134C486.804 316.046 487.266 317.168 487.266 318.5C487.266 319.832 486.804 320.954 485.88 321.866ZM482.514 321.704C483.414 321.704 484.17 321.398 484.782 320.786C485.394 320.174 485.7 319.412 485.7 318.5C485.7 317.588 485.394 316.826 484.782 316.214C484.17 315.602 483.414 315.296 482.514 315.296C481.626 315.296 480.876 315.602 480.264 316.214C479.652 316.826 479.346 317.588 479.346 318.5C479.346 319.412 479.652 320.174 480.264 320.786C480.876 321.398 481.626 321.704 482.514 321.704ZM490.678 315.512C491.194 314.396 492.13 313.838 493.486 313.838V315.476C492.718 315.44 492.058 315.644 491.506 316.088C490.954 316.532 490.678 317.246 490.678 318.23V323H489.112V314H490.678V315.512ZM495.018 323V309.86H496.584V323H495.018ZM506.425 310.4H507.991V323H506.425V321.452C505.645 322.64 504.511 323.234 503.023 323.234C501.763 323.234 500.689 322.778 499.801 321.866C498.913 320.942 498.469 319.82 498.469 318.5C498.469 317.18 498.913 316.064 499.801 315.152C500.689 314.228 501.763 313.766 503.023 313.766C504.511 313.766 505.645 314.36 506.425 315.548V310.4ZM503.221 321.722C504.133 321.722 504.895 321.416 505.507 320.804C506.119 320.18 506.425 319.412 506.425 318.5C506.425 317.588 506.119 316.826 505.507 316.214C504.895 315.59 504.133 315.278 503.221 315.278C502.321 315.278 501.565 315.59 500.953 316.214C500.341 316.826 500.035 317.588 500.035 318.5C500.035 319.412 500.341 320.18 500.953 320.804C501.565 321.416 502.321 321.722 503.221 321.722ZM512.704 310.382L511.534 314.756H510.184L510.904 310.382H512.704ZM514.825 316.43C514.825 316.778 514.999 317.06 515.347 317.276C515.695 317.48 516.115 317.648 516.607 317.78C517.099 317.9 517.591 318.044 518.083 318.212C518.575 318.368 518.995 318.644 519.343 319.04C519.691 319.424 519.865 319.922 519.865 320.534C519.865 321.35 519.547 322.004 518.911 322.496C518.287 322.988 517.483 323.234 516.499 323.234C515.623 323.234 514.873 323.042 514.249 322.658C513.625 322.274 513.181 321.764 512.917 321.128L514.267 320.354C514.411 320.786 514.681 321.128 515.077 321.38C515.473 321.632 515.947 321.758 516.499 321.758C517.015 321.758 517.441 321.662 517.777 321.47C518.113 321.266 518.281 320.954 518.281 320.534C518.281 320.186 518.107 319.91 517.759 319.706C517.411 319.49 516.991 319.322 516.499 319.202C516.007 319.07 515.515 318.92 515.023 318.752C514.531 318.584 514.111 318.308 513.763 317.924C513.415 317.54 513.241 317.048 513.241 316.448C513.241 315.668 513.541 315.026 514.141 314.522C514.753 314.018 515.515 313.766 516.427 313.766C517.159 313.766 517.807 313.934 518.371 314.27C518.947 314.594 519.379 315.05 519.667 315.638L518.353 316.376C518.029 315.608 517.387 315.224 516.427 315.224C515.983 315.224 515.605 315.332 515.293 315.548C514.981 315.752 514.825 316.046 514.825 316.43ZM534.445 310.4V311.984H530.719V323H529.063V311.984H525.355V310.4H534.445ZM541.901 321.866C540.977 322.778 539.855 323.234 538.535 323.234C537.215 323.234 536.093 322.778 535.169 321.866C534.257 320.954 533.801 319.832 533.801 318.5C533.801 317.168 534.257 316.046 535.169 315.134C536.093 314.222 537.215 313.766 538.535 313.766C539.855 313.766 540.977 314.222 541.901 315.134C542.825 316.046 543.287 317.168 543.287 318.5C543.287 319.832 542.825 320.954 541.901 321.866ZM538.535 321.704C539.435 321.704 540.191 321.398 540.803 320.786C541.415 320.174 541.721 319.412 541.721 318.5C541.721 317.588 541.415 316.826 540.803 316.214C540.191 315.602 539.435 315.296 538.535 315.296C537.647 315.296 536.897 315.602 536.285 316.214C535.673 316.826 535.367 317.588 535.367 318.5C535.367 319.412 535.673 320.174 536.285 320.786C536.897 321.398 537.647 321.704 538.535 321.704ZM550.101 313.766C551.361 313.766 552.435 314.228 553.323 315.152C554.211 316.064 554.655 317.18 554.655 318.5C554.655 319.82 554.211 320.942 553.323 321.866C552.435 322.778 551.361 323.234 550.101 323.234C548.613 323.234 547.479 322.64 546.699 321.452V326.6H545.133V314H546.699V315.548C547.479 314.36 548.613 313.766 550.101 313.766ZM549.903 321.722C550.803 321.722 551.559 321.416 552.171 320.804C552.783 320.18 553.089 319.412 553.089 318.5C553.089 317.588 552.783 316.826 552.171 316.214C551.559 315.59 550.803 315.278 549.903 315.278C548.991 315.278 548.229 315.59 547.617 316.214C547.005 316.826 546.699 317.588 546.699 318.5C546.699 319.412 547.005 320.18 547.617 320.804C548.229 321.416 548.991 321.722 549.903 321.722ZM565.524 315.566C566.484 315.746 567.27 316.16 567.882 316.808C568.494 317.456 568.8 318.278 568.8 319.274C568.8 320.498 568.38 321.464 567.54 322.172C566.7 322.88 565.68 323.234 564.48 323.234C563.52 323.234 562.668 323.018 561.924 322.586C561.18 322.142 560.652 321.506 560.34 320.678L561.744 319.85C562.116 321.014 563.028 321.596 564.48 321.596C565.26 321.596 565.896 321.392 566.388 320.984C566.88 320.576 567.126 320.006 567.126 319.274C567.126 318.542 566.88 317.972 566.388 317.564C565.896 317.144 565.26 316.934 564.48 316.934H564.048L563.382 315.908L566.298 311.966H560.7V310.4H568.26V311.876L565.524 315.566ZM572.758 315.746C571.942 315.746 571.264 315.476 570.724 314.936C570.184 314.396 569.914 313.736 569.914 312.956C569.914 312.188 570.184 311.534 570.724 310.994C571.276 310.442 571.954 310.166 572.758 310.166C573.574 310.166 574.252 310.436 574.792 310.976C575.332 311.516 575.602 312.176 575.602 312.956C575.602 313.736 575.332 314.396 574.792 314.936C574.264 315.476 573.586 315.746 572.758 315.746ZM571.714 314.018C571.99 314.294 572.338 314.432 572.758 314.432C573.178 314.432 573.52 314.288 573.784 314C574.06 313.712 574.198 313.364 574.198 312.956C574.198 312.548 574.06 312.206 573.784 311.93C573.52 311.642 573.178 311.498 572.758 311.498C572.338 311.498 571.99 311.642 571.714 311.93C571.45 312.206 571.318 312.548 571.318 312.956C571.318 313.376 571.45 313.73 571.714 314.018ZM570.76 321.218L579.13 311.858L580.012 312.344L571.624 321.722L570.76 321.218ZM580.228 322.406C579.688 322.946 579.01 323.216 578.194 323.216C577.378 323.216 576.7 322.946 576.16 322.406C575.62 321.866 575.35 321.206 575.35 320.426C575.35 319.646 575.62 318.986 576.16 318.446C576.7 317.906 577.378 317.636 578.194 317.636C579.01 317.636 579.688 317.906 580.228 318.446C580.768 318.986 581.038 319.646 581.038 320.426C581.038 321.206 580.768 321.866 580.228 322.406ZM577.15 321.47C577.426 321.746 577.774 321.884 578.194 321.884C578.614 321.884 578.956 321.746 579.22 321.47C579.496 321.182 579.634 320.834 579.634 320.426C579.634 320.018 579.496 319.676 579.22 319.4C578.956 319.112 578.614 318.968 578.194 318.968C577.774 318.968 577.426 319.112 577.15 319.4C576.886 319.676 576.754 320.018 576.754 320.426C576.754 320.834 576.886 321.182 577.15 321.47ZM595.304 321.866C594.38 322.778 593.258 323.234 591.938 323.234C590.618 323.234 589.496 322.778 588.572 321.866C587.66 320.954 587.204 319.832 587.204 318.5C587.204 317.168 587.66 316.046 588.572 315.134C589.496 314.222 590.618 313.766 591.938 313.766C593.258 313.766 594.38 314.222 595.304 315.134C596.228 316.046 596.69 317.168 596.69 318.5C596.69 319.832 596.228 320.954 595.304 321.866ZM591.938 321.704C592.838 321.704 593.594 321.398 594.206 320.786C594.818 320.174 595.124 319.412 595.124 318.5C595.124 317.588 594.818 316.826 594.206 316.214C593.594 315.602 592.838 315.296 591.938 315.296C591.05 315.296 590.3 315.602 589.688 316.214C589.076 316.826 588.77 317.588 588.77 318.5C588.77 319.412 589.076 320.174 589.688 320.786C590.3 321.398 591.05 321.704 591.938 321.704ZM602.828 311.678C601.244 311.546 600.452 312.23 600.452 313.73V314H602.828V315.512H600.452V323H598.886V315.512H597.446V314H598.886V313.73C598.886 312.518 599.222 311.6 599.894 310.976C600.578 310.352 601.556 310.082 602.828 310.166V311.678ZM491.261 332.4C492.977 332.4 494.399 333.012 495.527 334.236C496.667 335.448 497.237 336.936 497.237 338.7C497.237 340.464 496.667 341.958 495.527 343.182C494.399 344.394 492.977 345 491.261 345H486.347V332.4H491.261ZM491.261 343.416C492.545 343.416 493.595 342.966 494.411 342.066C495.227 341.166 495.635 340.044 495.635 338.7C495.635 337.356 495.227 336.234 494.411 335.334C493.595 334.434 492.545 333.984 491.261 333.984H488.021V343.416H491.261ZM500.203 341.22C500.359 342.024 500.725 342.648 501.301 343.092C501.889 343.536 502.609 343.758 503.461 343.758C504.649 343.758 505.513 343.32 506.053 342.444L507.385 343.2C506.509 344.556 505.189 345.234 503.425 345.234C501.997 345.234 500.833 344.79 499.933 343.902C499.045 343.002 498.601 341.868 498.601 340.5C498.601 339.144 499.039 338.016 499.915 337.116C500.791 336.216 501.925 335.766 503.317 335.766C504.637 335.766 505.711 336.234 506.539 337.17C507.379 338.094 507.799 339.21 507.799 340.518C507.799 340.746 507.781 340.98 507.745 341.22H500.203ZM503.317 337.242C502.477 337.242 501.781 337.482 501.229 337.962C500.677 338.43 500.335 339.06 500.203 339.852H506.215C506.083 339 505.747 338.352 505.207 337.908C504.667 337.464 504.037 337.242 503.317 337.242ZM515.548 336H517.24L513.64 345H511.804L508.204 336H509.896L512.722 343.326L515.548 336ZM519.31 341.22C519.466 342.024 519.832 342.648 520.408 343.092C520.996 343.536 521.716 343.758 522.568 343.758C523.756 343.758 524.62 343.32 525.16 342.444L526.492 343.2C525.616 344.556 524.296 345.234 522.532 345.234C521.104 345.234 519.94 344.79 519.04 343.902C518.152 343.002 517.708 341.868 517.708 340.5C517.708 339.144 518.146 338.016 519.022 337.116C519.898 336.216 521.032 335.766 522.424 335.766C523.744 335.766 524.818 336.234 525.646 337.17C526.486 338.094 526.906 339.21 526.906 340.518C526.906 340.746 526.888 340.98 526.852 341.22H519.31ZM522.424 337.242C521.584 337.242 520.888 337.482 520.336 337.962C519.784 338.43 519.442 339.06 519.31 339.852H525.322C525.19 339 524.854 338.352 524.314 337.908C523.774 337.464 523.144 337.242 522.424 337.242ZM528.707 345V331.86H530.273V345H528.707ZM540.258 343.866C539.334 344.778 538.212 345.234 536.892 345.234C535.572 345.234 534.45 344.778 533.526 343.866C532.614 342.954 532.158 341.832 532.158 340.5C532.158 339.168 532.614 338.046 533.526 337.134C534.45 336.222 535.572 335.766 536.892 335.766C538.212 335.766 539.334 336.222 540.258 337.134C541.182 338.046 541.644 339.168 541.644 340.5C541.644 341.832 541.182 342.954 540.258 343.866ZM536.892 343.704C537.792 343.704 538.548 343.398 539.16 342.786C539.772 342.174 540.078 341.412 540.078 340.5C540.078 339.588 539.772 338.826 539.16 338.214C538.548 337.602 537.792 337.296 536.892 337.296C536.004 337.296 535.254 337.602 534.642 338.214C534.03 338.826 533.724 339.588 533.724 340.5C533.724 341.412 534.03 342.174 534.642 342.786C535.254 343.398 536.004 343.704 536.892 343.704ZM548.458 335.766C549.718 335.766 550.792 336.228 551.68 337.152C552.568 338.064 553.012 339.18 553.012 340.5C553.012 341.82 552.568 342.942 551.68 343.866C550.792 344.778 549.718 345.234 548.458 345.234C546.97 345.234 545.836 344.64 545.056 343.452V348.6H543.49V336H545.056V337.548C545.836 336.36 546.97 335.766 548.458 335.766ZM548.26 343.722C549.16 343.722 549.916 343.416 550.528 342.804C551.14 342.18 551.446 341.412 551.446 340.5C551.446 339.588 551.14 338.826 550.528 338.214C549.916 337.59 549.16 337.278 548.26 337.278C547.348 337.278 546.586 337.59 545.974 338.214C545.362 338.826 545.056 339.588 545.056 340.5C545.056 341.412 545.362 342.18 545.974 342.804C546.586 343.416 547.348 343.722 548.26 343.722ZM555.978 341.22C556.134 342.024 556.5 342.648 557.076 343.092C557.664 343.536 558.384 343.758 559.236 343.758C560.424 343.758 561.288 343.32 561.828 342.444L563.16 343.2C562.284 344.556 560.964 345.234 559.2 345.234C557.772 345.234 556.608 344.79 555.708 343.902C554.82 343.002 554.376 341.868 554.376 340.5C554.376 339.144 554.814 338.016 555.69 337.116C556.566 336.216 557.7 335.766 559.092 335.766C560.412 335.766 561.486 336.234 562.314 337.17C563.154 338.094 563.574 339.21 563.574 340.518C563.574 340.746 563.556 340.98 563.52 341.22H555.978ZM559.092 337.242C558.252 337.242 557.556 337.482 557.004 337.962C556.452 338.43 556.11 339.06 555.978 339.852H561.99C561.858 339 561.522 338.352 560.982 337.908C560.442 337.464 559.812 337.242 559.092 337.242ZM566.941 337.512C567.457 336.396 568.393 335.838 569.749 335.838V337.476C568.981 337.44 568.321 337.644 567.769 338.088C567.217 338.532 566.941 339.246 566.941 340.23V345H565.375V336H566.941V337.512ZM572.297 338.43C572.297 338.778 572.471 339.06 572.819 339.276C573.167 339.48 573.587 339.648 574.079 339.78C574.571 339.9 575.063 340.044 575.555 340.212C576.047 340.368 576.467 340.644 576.815 341.04C577.163 341.424 577.337 341.922 577.337 342.534C577.337 343.35 577.019 344.004 576.383 344.496C575.759 344.988 574.955 345.234 573.971 345.234C573.095 345.234 572.345 345.042 571.721 344.658C571.097 344.274 570.653 343.764 570.389 343.128L571.739 342.354C571.883 342.786 572.153 343.128 572.549 343.38C572.945 343.632 573.419 343.758 573.971 343.758C574.487 343.758 574.913 343.662 575.249 343.47C575.585 343.266 575.753 342.954 575.753 342.534C575.753 342.186 575.579 341.91 575.231 341.706C574.883 341.49 574.463 341.322 573.971 341.202C573.479 341.07 572.987 340.92 572.495 340.752C572.003 340.584 571.583 340.308 571.235 339.924C570.887 339.54 570.713 339.048 570.713 338.448C570.713 337.668 571.013 337.026 571.613 336.522C572.225 336.018 572.987 335.766 573.899 335.766C574.631 335.766 575.279 335.934 575.843 336.27C576.419 336.594 576.851 337.05 577.139 337.638L575.825 338.376C575.501 337.608 574.859 337.224 573.899 337.224C573.455 337.224 573.077 337.332 572.765 337.548C572.453 337.752 572.297 338.046 572.297 338.43Z" fill="black"/>
<path d="M439.363 272.644C438.87 272.644 438.131 272.398 437.885 271.905L364.983 199.003C364.49 198.51 364.244 198.018 364.244 197.525C364.244 197.033 364.49 196.294 364.983 196.047C386.164 174.866 397.74 146.789 397.74 116.742C397.74 86.6944 386.164 58.6172 364.983 37.4362C343.802 16.2552 315.725 4.67953 285.677 4.67953C255.63 4.67953 227.553 16.2552 206.372 37.4362C185.191 58.6172 173.615 86.6944 173.615 116.742C173.615 146.789 185.191 174.866 206.372 196.047C207.111 196.786 207.111 198.264 206.372 199.249C205.633 199.988 204.155 199.988 203.17 199.249C181.25 177.329 168.936 148.021 168.936 116.742C168.936 85.7092 181.004 56.4006 203.17 34.2344C225.09 12.3145 254.398 0 285.677 0C316.71 0 346.019 12.0682 368.185 34.2344C390.105 56.1543 402.419 85.4629 402.419 116.742C402.419 147.036 390.844 175.852 369.909 197.525L441.087 268.703C441.826 269.442 441.826 270.92 441.087 271.905C440.348 272.398 439.855 272.644 439.363 272.644Z" fill="#FF3654"/>
<path d="M416.459 272.89V268.457L438.133 269.196L437.394 247.522H441.827L442.812 273.875L416.459 272.89Z" fill="#FF3654"/>
<path d="M373.844 437.659C373.352 437.659 372.613 437.412 372.367 436.92C371.628 436.181 371.628 434.703 372.367 433.718L445.269 360.816C446.008 360.077 447.485 360.077 448.47 360.816C469.652 381.997 497.729 393.573 527.776 393.573C557.824 393.573 585.901 381.997 607.082 360.816C628.263 339.635 639.838 311.558 639.838 281.51C639.838 251.463 628.263 223.386 607.082 202.205C585.901 181.024 557.824 169.448 527.776 169.448C497.729 169.448 469.652 181.024 448.47 202.205C447.732 202.944 446.254 202.944 445.269 202.205C444.53 201.466 444.53 199.988 445.269 199.003C467.189 177.083 496.497 164.768 527.776 164.768C558.809 164.768 588.117 176.837 610.284 199.003C632.203 220.923 644.518 250.231 644.518 281.51C644.518 312.543 632.45 341.852 610.284 364.018C588.364 385.938 559.055 398.252 527.776 398.252C497.482 398.252 468.666 386.676 446.993 365.742L375.815 436.92C375.076 437.412 374.337 437.659 373.844 437.659Z" fill="#00B59A"/>
<path d="M371.384 412.537L375.817 412.783L375.078 434.457L396.752 433.472V437.905L370.398 438.89L371.384 412.537Z" fill="#00B59A"/>
<path d="M359.563 645.035C328.531 645.035 299.222 632.967 277.056 610.801C255.136 588.881 242.821 559.573 242.821 528.294C242.821 498 254.397 469.184 275.332 447.51L204.154 376.332C203.415 375.593 203.415 374.116 204.154 373.13C204.893 372.392 206.37 372.392 207.356 373.13L280.258 446.033C280.996 446.771 280.996 448.249 280.258 449.234C259.077 470.415 247.501 498.492 247.501 528.54C247.501 558.587 259.077 586.665 280.258 607.846C301.439 629.027 329.516 640.602 359.563 640.602C389.611 640.602 417.688 629.027 438.869 607.846C460.05 586.665 471.626 558.587 471.626 528.54C471.626 498.492 460.05 470.415 438.869 449.234C438.13 448.495 438.13 447.018 438.869 446.033C439.608 445.294 441.085 445.294 442.071 446.033C463.991 467.952 476.305 497.261 476.305 528.54C476.305 559.819 464.237 588.881 442.071 611.047C419.904 632.967 390.596 645.035 359.563 645.035Z" fill="#4B3AD1"/>
<path d="M228.785 372.392L228.538 376.825L206.865 376.086L207.85 397.513L203.417 397.76L202.432 371.406L228.785 372.392Z" fill="#4B3AD1"/>
<path d="M117.461 480.021C86.428 480.021 57.1194 467.952 34.9532 445.786C13.0333 423.866 0.71875 394.558 0.71875 363.279C0.71875 332.246 12.787 302.938 34.9532 280.771C56.8731 258.852 86.1817 246.537 117.461 246.537C147.754 246.537 176.57 258.113 198.244 279.047L269.422 207.869C270.161 207.131 271.639 207.131 272.624 207.869C273.363 208.608 273.363 210.086 272.624 211.071L199.722 283.973C198.983 284.712 197.505 284.712 196.52 283.973C175.339 262.792 147.262 251.217 117.214 251.217C87.1668 251.217 59.0897 262.792 37.9087 283.973C16.7277 305.154 5.15199 333.231 5.15199 363.279C5.15199 393.326 16.7277 421.404 37.9087 442.585C59.0897 463.766 87.1668 475.341 117.214 475.341C147.262 475.341 175.339 463.766 196.52 442.585C197.259 441.846 198.737 441.846 199.722 442.585C200.461 443.323 200.461 444.801 199.722 445.786C178.048 467.706 148.74 480.021 117.461 480.021Z" fill="#FF9D00"/>
<path d="M273.61 232.499H269.177L269.916 210.825L248.488 211.564L248.242 207.131L274.595 206.392L273.61 232.499Z" fill="#FF9D00"/>
<path d="M102.538 305.122C100.219 301.157 95.1201 299.82 91.1495 302.136C87.1789 304.452 85.8402 309.543 88.1593 313.508C89.9375 316.548 93.4404 318.14 96.904 317.483C95.4143 312.535 97.8231 307.25 102.538 305.122Z" fill="#FF9D00"/>
<path d="M124.427 333.141C119.279 333.141 115.105 337.308 115.105 342.448C115.105 347.589 119.279 351.756 124.427 351.756C129.575 351.756 133.748 347.589 133.748 342.448C133.742 337.31 129.572 333.146 124.427 333.141ZM124.427 349.688C120.423 349.688 117.177 346.447 117.177 342.448C117.177 338.45 120.423 335.209 124.427 335.209C128.43 335.209 131.676 338.45 131.676 342.448C131.671 346.444 128.428 349.683 124.427 349.688Z" fill="#FF9D00"/>
<path d="M124.428 347.619C127.288 347.619 129.607 345.304 129.607 342.448C129.607 339.592 127.288 337.277 124.428 337.277C121.568 337.277 119.25 339.592 119.25 342.448C119.25 345.304 121.568 347.619 124.428 347.619Z" fill="#FF9D00"/>
<path d="M138.105 339.927C137.795 339.804 137.563 339.538 137.483 339.215C137.161 337.913 136.644 336.667 135.949 335.519C135.778 335.235 135.753 334.885 135.884 334.579L137.083 331.775C136.794 331.42 136.469 331.073 136.138 330.734C135.816 330.424 135.469 330.097 135.102 329.797L132.306 331.005C132 331.136 131.65 331.112 131.364 330.94C130.216 330.25 128.969 329.737 127.667 329.418C127.343 329.338 127.077 329.107 126.954 328.797L125.823 325.964C124.892 325.88 123.957 325.88 123.026 325.964L121.904 328.797C121.78 329.107 121.514 329.338 121.19 329.418C119.887 329.738 118.639 330.252 117.49 330.944C117.204 331.116 116.854 331.14 116.548 331.009L113.739 329.812C113.384 330.101 113.037 330.425 112.697 330.756C112.387 331.078 112.059 331.424 111.759 331.79L112.969 334.582C113.1 334.888 113.075 335.238 112.903 335.522C112.212 336.67 111.699 337.914 111.379 339.215C111.299 339.538 111.068 339.803 110.758 339.927L107.92 341.056C107.876 341.519 107.855 341.984 107.858 342.448C107.858 342.974 107.878 343.433 107.92 343.854L110.758 344.97C111.068 345.093 111.299 345.359 111.379 345.682C111.699 346.984 112.215 348.229 112.908 349.377C113.079 349.662 113.104 350.012 112.973 350.317L111.774 353.122C112.063 353.477 112.388 353.823 112.719 354.163C113.041 354.473 113.388 354.8 113.755 355.099L116.551 353.892C116.679 353.836 116.817 353.808 116.957 353.808C117.146 353.808 117.331 353.859 117.493 353.957C118.641 354.65 119.887 355.166 121.189 355.488C121.513 355.568 121.779 355.799 121.902 356.109L123.033 358.937C123.964 359.021 124.899 359.021 125.83 358.937L126.947 356.109C127.071 355.799 127.337 355.568 127.661 355.488C128.967 355.166 130.216 354.648 131.367 353.953C131.652 353.781 132.003 353.757 132.309 353.887L135.118 355.085C135.473 354.796 135.82 354.472 136.16 354.141C136.47 353.819 136.798 353.473 137.098 353.107L135.888 350.314C135.757 350.009 135.782 349.659 135.953 349.374C136.648 348.228 137.165 346.984 137.487 345.683C137.567 345.36 137.799 345.094 138.109 344.971L140.941 343.842C140.984 343.378 141.003 342.914 140.999 342.449C140.999 341.923 140.979 341.464 140.937 341.043L138.105 339.927ZM124.429 353.824C118.137 353.824 113.036 348.731 113.036 342.448C113.036 336.166 118.137 331.072 124.429 331.072C130.72 331.072 135.821 336.166 135.821 342.448C135.814 348.728 130.717 353.817 124.429 353.824Z" fill="#FF9D00"/>
<path d="M119.351 327.829C119.625 327.734 119.893 327.622 120.179 327.543L121.117 325.195C121.405 324.479 122.066 323.982 122.835 323.904C123.903 323.808 124.977 323.808 126.045 323.904C126.805 323.988 127.456 324.483 127.74 325.191L128.68 327.543C129.335 327.734 129.976 327.968 130.6 328.244C130.201 323.419 126.167 319.704 121.318 319.697H118.211C117.444 319.695 116.68 319.609 115.933 319.438C115.125 320.923 113.968 322.189 112.561 323.128C115.333 323.793 117.755 325.47 119.351 327.829Z" fill="#FF9D00"/>
<path d="M118.214 317.629C122.79 317.635 126.505 313.936 126.512 309.367C126.519 304.798 122.814 301.088 118.238 301.082C115.314 301.077 112.604 302.613 111.107 305.122C115.822 307.25 118.231 312.535 116.742 317.483C117.227 317.575 117.72 317.624 118.214 317.629Z" fill="#FF9D00"/>
<path d="M111.228 329.294C111.628 328.904 112.017 328.542 112.426 328.206C113.019 327.711 113.842 327.596 114.548 327.91L116.879 328.904C117.05 328.809 117.231 328.738 117.405 328.649C115.649 326.278 112.874 324.875 109.92 324.867H103.706C98.5604 324.873 94.3905 329.037 94.3848 334.175V340.38C94.3848 341.523 95.3121 342.449 96.4562 342.449H105.777C105.777 341.856 105.8 341.33 105.849 340.84C105.93 340.079 106.425 339.424 107.137 339.139L109.492 338.2C109.817 337.058 110.274 335.957 110.852 334.919L109.856 332.591C109.541 331.879 109.662 331.05 110.167 330.456C110.493 330.064 110.852 329.675 111.228 329.294Z" fill="#FF9D00"/>
<path d="M106.825 322.799C111.401 322.799 115.11 319.095 115.11 314.526C115.11 309.957 111.401 306.252 106.825 306.252C102.249 306.252 98.5391 309.957 98.5391 314.526C98.5391 319.095 102.249 322.799 106.825 322.799Z" fill="#FF9D00"/>
<path d="M85.0713 337.278H92.321V334.175C92.33 328.915 95.9468 324.345 101.071 323.121C99.6672 322.183 98.5128 320.92 97.7067 319.438C96.9592 319.609 96.1949 319.696 95.4282 319.697H92.3212C87.1756 319.702 83.0057 323.866 83 329.004V335.21C82.9999 336.352 83.9273 337.278 85.0713 337.278Z" fill="#FF9D00"/>
<path d="M46.0524 376.314C47.2404 376.314 48.2424 376.668 49.0584 377.376C49.8864 378.072 50.3004 379.038 50.3004 380.274C50.3004 381.498 49.8804 382.464 49.0404 383.172C48.2004 383.88 47.1804 384.234 45.9804 384.234C45.0204 384.234 44.1624 384.006 43.4064 383.55C42.6504 383.082 42.1224 382.41 41.8224 381.534L43.2444 380.724C43.4124 381.336 43.7364 381.804 44.2164 382.128C44.6964 382.44 45.2844 382.596 45.9804 382.596C46.7724 382.596 47.4144 382.392 47.9064 381.984C48.3984 381.576 48.6444 381.006 48.6444 380.274C48.6444 379.542 48.3984 378.972 47.9064 378.564C47.4144 378.144 46.7844 377.934 46.0164 377.934H42.4524L42.9204 371.4H49.8144V372.966H44.4324L44.2164 376.314H46.0524ZM59.9014 382.452C59.0494 383.64 57.8554 384.234 56.3194 384.234C54.7834 384.234 53.5894 383.64 52.7374 382.452C51.8854 381.264 51.4594 379.68 51.4594 377.7C51.4594 375.72 51.8854 374.136 52.7374 372.948C53.5894 371.76 54.7834 371.166 56.3194 371.166C57.8554 371.166 59.0494 371.76 59.9014 372.948C60.7534 374.136 61.1794 375.72 61.1794 377.7C61.1794 379.68 60.7534 381.264 59.9014 382.452ZM53.9614 381.318C54.5134 382.17 55.2994 382.596 56.3194 382.596C57.3394 382.596 58.1254 382.17 58.6774 381.318C59.2414 380.466 59.5234 379.26 59.5234 377.7C59.5234 376.14 59.2414 374.934 58.6774 374.082C58.1254 373.218 57.3394 372.786 56.3194 372.786C55.2994 372.786 54.5134 373.212 53.9614 374.064C53.4094 374.916 53.1334 376.128 53.1334 377.7C53.1334 379.26 53.4094 380.466 53.9614 381.318ZM65.4697 376.746C64.6537 376.746 63.9757 376.476 63.4357 375.936C62.8957 375.396 62.6257 374.736 62.6257 373.956C62.6257 373.188 62.8957 372.534 63.4357 371.994C63.9877 371.442 64.6657 371.166 65.4697 371.166C66.2857 371.166 66.9637 371.436 67.5037 371.976C68.0437 372.516 68.3137 373.176 68.3137 373.956C68.3137 374.736 68.0437 375.396 67.5037 375.936C66.9757 376.476 66.2977 376.746 65.4697 376.746ZM64.4257 375.018C64.7017 375.294 65.0497 375.432 65.4697 375.432C65.8897 375.432 66.2317 375.288 66.4957 375C66.7717 374.712 66.9097 374.364 66.9097 373.956C66.9097 373.548 66.7717 373.206 66.4957 372.93C66.2317 372.642 65.8897 372.498 65.4697 372.498C65.0497 372.498 64.7017 372.642 64.4257 372.93C64.1617 373.206 64.0297 373.548 64.0297 373.956C64.0297 374.376 64.1617 374.73 64.4257 375.018ZM63.4717 382.218L71.8417 372.858L72.7237 373.344L64.3357 382.722L63.4717 382.218ZM72.9397 383.406C72.3997 383.946 71.7217 384.216 70.9057 384.216C70.0897 384.216 69.4117 383.946 68.8717 383.406C68.3317 382.866 68.0617 382.206 68.0617 381.426C68.0617 380.646 68.3317 379.986 68.8717 379.446C69.4117 378.906 70.0897 378.636 70.9057 378.636C71.7217 378.636 72.3997 378.906 72.9397 379.446C73.4797 379.986 73.7497 380.646 73.7497 381.426C73.7497 382.206 73.4797 382.866 72.9397 383.406ZM69.8617 382.47C70.1377 382.746 70.4857 382.884 70.9057 382.884C71.3257 382.884 71.6677 382.746 71.9317 382.47C72.2077 382.182 72.3457 381.834 72.3457 381.426C72.3457 381.018 72.2077 380.676 71.9317 380.4C71.6677 380.112 71.3257 379.968 70.9057 379.968C70.4857 379.968 70.1377 380.112 69.8617 380.4C69.5977 380.676 69.4657 381.018 69.4657 381.426C69.4657 381.834 69.5977 382.182 69.8617 382.47ZM92.3714 371.4V384H90.7154V374.154L86.5934 381.012H86.3774L82.2554 374.172V384H80.5814V371.4H82.4714L86.4854 378.06L90.4814 371.4H92.3714ZM102.356 375H103.922V384H102.356V382.452C101.576 383.64 100.442 384.234 98.9538 384.234C97.6938 384.234 96.6198 383.778 95.7318 382.866C94.8438 381.942 94.3998 380.82 94.3998 379.5C94.3998 378.18 94.8438 377.064 95.7318 376.152C96.6198 375.228 97.6938 374.766 98.9538 374.766C100.442 374.766 101.576 375.36 102.356 376.548V375ZM99.1518 382.722C100.064 382.722 100.826 382.416 101.438 381.804C102.05 381.18 102.356 380.412 102.356 379.5C102.356 378.588 102.05 377.826 101.438 377.214C100.826 376.59 100.064 376.278 99.1518 376.278C98.2518 376.278 97.4958 376.59 96.8838 377.214C96.2718 377.826 95.9658 378.588 95.9658 379.5C95.9658 380.412 96.2718 381.18 96.8838 381.804C97.4958 382.416 98.2518 382.722 99.1518 382.722ZM107.289 373.362C106.989 373.362 106.737 373.26 106.533 373.056C106.329 372.852 106.227 372.606 106.227 372.318C106.227 372.03 106.329 371.784 106.533 371.58C106.737 371.364 106.989 371.256 107.289 371.256C107.577 371.256 107.823 371.364 108.027 371.58C108.231 371.784 108.333 372.03 108.333 372.318C108.333 372.606 108.231 372.852 108.027 373.056C107.823 373.26 107.577 373.362 107.289 373.362ZM106.497 384.54V375H108.063V384.54C108.063 385.704 107.769 386.562 107.181 387.114C106.593 387.678 105.729 387.918 104.589 387.834V386.322C105.249 386.382 105.729 386.274 106.029 385.998C106.341 385.722 106.497 385.236 106.497 384.54ZM118.039 382.866C117.115 383.778 115.993 384.234 114.673 384.234C113.353 384.234 112.231 383.778 111.307 382.866C110.395 381.954 109.939 380.832 109.939 379.5C109.939 378.168 110.395 377.046 111.307 376.134C112.231 375.222 113.353 374.766 114.673 374.766C115.993 374.766 117.115 375.222 118.039 376.134C118.963 377.046 119.425 378.168 119.425 379.5C119.425 380.832 118.963 381.954 118.039 382.866ZM114.673 382.704C115.573 382.704 116.329 382.398 116.941 381.786C117.553 381.174 117.859 380.412 117.859 379.5C117.859 378.588 117.553 377.826 116.941 377.214C116.329 376.602 115.573 376.296 114.673 376.296C113.785 376.296 113.035 376.602 112.423 377.214C111.811 377.826 111.505 378.588 111.505 379.5C111.505 380.412 111.811 381.174 112.423 381.786C113.035 382.398 113.785 382.704 114.673 382.704ZM122.837 376.512C123.353 375.396 124.289 374.838 125.645 374.838V376.476C124.877 376.44 124.217 376.644 123.665 377.088C123.113 377.532 122.837 378.246 122.837 379.23V384H121.271V375H122.837V376.512ZM141.991 383.478L140.587 384.288L139.309 382.92C138.373 383.796 137.173 384.234 135.709 384.234C134.449 384.234 133.429 383.91 132.649 383.262C131.869 382.602 131.479 381.714 131.479 380.598C131.479 379.83 131.671 379.128 132.055 378.492C132.451 377.844 133.027 377.334 133.783 376.962C133.243 376.278 132.973 375.516 132.973 374.676C132.973 373.632 133.333 372.786 134.053 372.138C134.785 371.49 135.661 371.166 136.681 371.166C137.521 371.166 138.283 371.394 138.967 371.85C139.651 372.306 140.143 372.936 140.443 373.74L139.039 374.55C138.859 373.998 138.559 373.566 138.139 373.254C137.731 372.942 137.257 372.786 136.717 372.786C136.141 372.786 135.649 372.96 135.241 373.308C134.845 373.656 134.647 374.106 134.647 374.658C134.647 375.054 134.737 375.414 134.917 375.738C135.109 376.05 135.391 376.404 135.763 376.8L139.201 380.472C139.501 379.848 139.717 379.086 139.849 378.186L141.289 379.014C141.121 380.01 140.797 380.904 140.317 381.696L141.991 383.478ZM135.745 382.65C136.741 382.65 137.569 382.356 138.229 381.768L134.827 378.114C134.251 378.354 133.825 378.69 133.549 379.122C133.285 379.554 133.153 380.01 133.153 380.49C133.153 381.162 133.381 381.69 133.837 382.074C134.293 382.458 134.929 382.65 135.745 382.65ZM150.471 371.4H151.911V384H150.255V373.2L147.573 373.992L147.159 372.552L150.471 371.4ZM162.575 382.452C161.723 383.64 160.529 384.234 158.993 384.234C157.457 384.234 156.263 383.64 155.411 382.452C154.559 381.264 154.133 379.68 154.133 377.7C154.133 375.72 154.559 374.136 155.411 372.948C156.263 371.76 157.457 371.166 158.993 371.166C160.529 371.166 161.723 371.76 162.575 372.948C163.427 374.136 163.853 375.72 163.853 377.7C163.853 379.68 163.427 381.264 162.575 382.452ZM156.635 381.318C157.187 382.17 157.973 382.596 158.993 382.596C160.013 382.596 160.799 382.17 161.351 381.318C161.915 380.466 162.197 379.26 162.197 377.7C162.197 376.14 161.915 374.934 161.351 374.082C160.799 373.218 160.013 372.786 158.993 372.786C157.973 372.786 157.187 373.212 156.635 374.064C156.083 374.916 155.807 376.128 155.807 377.7C155.807 379.26 156.083 380.466 156.635 381.318ZM173.913 382.452C173.061 383.64 171.867 384.234 170.331 384.234C168.795 384.234 167.601 383.64 166.749 382.452C165.897 381.264 165.471 379.68 165.471 377.7C165.471 375.72 165.897 374.136 166.749 372.948C167.601 371.76 168.795 371.166 170.331 371.166C171.867 371.166 173.061 371.76 173.913 372.948C174.765 374.136 175.191 375.72 175.191 377.7C175.191 379.68 174.765 381.264 173.913 382.452ZM167.973 381.318C168.525 382.17 169.311 382.596 170.331 382.596C171.351 382.596 172.137 382.17 172.689 381.318C173.253 380.466 173.535 379.26 173.535 377.7C173.535 376.14 173.253 374.934 172.689 374.082C172.137 373.218 171.351 372.786 170.331 372.786C169.311 372.786 168.525 373.212 167.973 374.064C167.421 374.916 167.145 376.128 167.145 377.7C167.145 379.26 167.421 380.466 167.973 381.318ZM184.783 376.944V378.438H181.651V381.57H180.157V378.438H177.043V376.944H180.157V373.83H181.651V376.944H184.783ZM77.7115 404.416H83.5615V406H76.0375V393.4H83.4715V394.984H77.7115V398.854H83.0215V400.42H77.7115V404.416ZM95.1404 396.766C96.1484 396.766 96.9644 397.096 97.5884 397.756C98.2124 398.404 98.5244 399.286 98.5244 400.402V406H96.9584V400.456C96.9584 399.76 96.7784 399.22 96.4184 398.836C96.0584 398.452 95.5784 398.26 94.9784 398.26C94.3064 398.26 93.7664 398.488 93.3584 398.944C92.9624 399.388 92.7644 400.072 92.7644 400.996V406H91.1984V400.456C91.1984 399.76 91.0244 399.22 90.6764 398.836C90.3404 398.452 89.8784 398.26 89.2904 398.26C88.6304 398.26 88.0784 398.488 87.6344 398.944C87.2024 399.4 86.9864 400.084 86.9864 400.996V406H85.4204V397H86.9864V398.206C87.5984 397.246 88.4924 396.766 89.6684 396.766C90.8804 396.766 91.7624 397.276 92.3144 398.296C92.9384 397.276 93.8804 396.766 95.1404 396.766ZM101.794 402.22C101.95 403.024 102.316 403.648 102.892 404.092C103.48 404.536 104.2 404.758 105.052 404.758C106.24 404.758 107.104 404.32 107.644 403.444L108.976 404.2C108.1 405.556 106.78 406.234 105.016 406.234C103.588 406.234 102.424 405.79 101.524 404.902C100.636 404.002 100.192 402.868 100.192 401.5C100.192 400.144 100.63 399.016 101.506 398.116C102.382 397.216 103.516 396.766 104.908 396.766C106.228 396.766 107.302 397.234 108.13 398.17C108.97 399.094 109.39 400.21 109.39 401.518C109.39 401.746 109.372 401.98 109.336 402.22H101.794ZM104.908 398.242C104.068 398.242 103.372 398.482 102.82 398.962C102.268 399.43 101.926 400.06 101.794 400.852H107.806C107.674 400 107.338 399.352 106.798 398.908C106.258 398.464 105.628 398.242 104.908 398.242ZM112.756 398.512C113.272 397.396 114.208 396.838 115.564 396.838V398.476C114.796 398.44 114.136 398.644 113.584 399.088C113.032 399.532 112.756 400.246 112.756 401.23V406H111.19V397H112.756V398.512ZM124.074 397H125.622V405.622C125.622 406.954 125.172 407.986 124.272 408.718C123.372 409.462 122.292 409.834 121.032 409.834C120.024 409.834 119.154 409.642 118.422 409.258C117.69 408.886 117.138 408.346 116.766 407.638L118.134 406.864C118.626 407.872 119.604 408.376 121.068 408.376C122.004 408.376 122.736 408.13 123.264 407.638C123.804 407.146 124.074 406.474 124.074 405.622V404.344C123.282 405.544 122.154 406.144 120.69 406.144C119.406 406.144 118.32 405.688 117.432 404.776C116.544 403.864 116.1 402.754 116.1 401.446C116.1 400.138 116.544 399.034 117.432 398.134C118.32 397.222 119.406 396.766 120.69 396.766C122.166 396.766 123.294 397.36 124.074 398.548V397ZM118.584 403.732C119.196 404.344 119.958 404.65 120.87 404.65C121.782 404.65 122.544 404.344 123.156 403.732C123.768 403.12 124.074 402.358 124.074 401.446C124.074 400.546 123.768 399.79 123.156 399.178C122.544 398.566 121.782 398.26 120.87 398.26C119.958 398.26 119.196 398.566 118.584 399.178C117.972 399.79 117.666 400.546 117.666 401.446C117.666 402.358 117.972 403.12 118.584 403.732ZM128.787 395.362C128.487 395.362 128.235 395.26 128.031 395.056C127.827 394.852 127.725 394.606 127.725 394.318C127.725 394.03 127.827 393.784 128.031 393.58C128.235 393.364 128.487 393.256 128.787 393.256C129.075 393.256 129.321 393.364 129.525 393.58C129.729 393.784 129.831 394.03 129.831 394.318C129.831 394.606 129.729 394.852 129.525 395.056C129.321 395.26 129.075 395.362 128.787 395.362ZM127.995 406V397H129.561V406H127.995ZM136.432 396.766C137.488 396.766 138.334 397.102 138.97 397.774C139.606 398.434 139.924 399.334 139.924 400.474V406H138.358V400.564C138.358 399.832 138.16 399.268 137.764 398.872C137.368 398.464 136.822 398.26 136.126 398.26C135.346 398.26 134.716 398.506 134.236 398.998C133.756 399.478 133.516 400.222 133.516 401.23V406H131.95V397H133.516V398.296C134.152 397.276 135.124 396.766 136.432 396.766ZM149.58 397H151.128V405.622C151.128 406.954 150.678 407.986 149.778 408.718C148.878 409.462 147.798 409.834 146.538 409.834C145.53 409.834 144.66 409.642 143.928 409.258C143.196 408.886 142.644 408.346 142.272 407.638L143.64 406.864C144.132 407.872 145.11 408.376 146.574 408.376C147.51 408.376 148.242 408.13 148.77 407.638C149.31 407.146 149.58 406.474 149.58 405.622V404.344C148.788 405.544 147.66 406.144 146.196 406.144C144.912 406.144 143.826 405.688 142.938 404.776C142.05 403.864 141.606 402.754 141.606 401.446C141.606 400.138 142.05 399.034 142.938 398.134C143.826 397.222 144.912 396.766 146.196 396.766C147.672 396.766 148.8 397.36 149.58 398.548V397ZM144.09 403.732C144.702 404.344 145.464 404.65 146.376 404.65C147.288 404.65 148.05 404.344 148.662 403.732C149.274 403.12 149.58 402.358 149.58 401.446C149.58 400.546 149.274 399.79 148.662 399.178C148.05 398.566 147.288 398.26 146.376 398.26C145.464 398.26 144.702 398.566 144.09 399.178C143.478 399.79 143.172 400.546 143.172 401.446C143.172 402.358 143.478 403.12 144.09 403.732ZM68.8876 415.4V416.984H65.1616V428H63.5056V416.984H59.7976V415.4H68.8876ZM69.8456 424.22C70.0016 425.024 70.3676 425.648 70.9436 426.092C71.5316 426.536 72.2516 426.758 73.1036 426.758C74.2916 426.758 75.1556 426.32 75.6956 425.444L77.0276 426.2C76.1516 427.556 74.8316 428.234 73.0676 428.234C71.6396 428.234 70.4756 427.79 69.5756 426.902C68.6876 426.002 68.2436 424.868 68.2436 423.5C68.2436 422.144 68.6816 421.016 69.5576 420.116C70.4336 419.216 71.5676 418.766 72.9596 418.766C74.2796 418.766 75.3536 419.234 76.1816 420.17C77.0216 421.094 77.4416 422.21 77.4416 423.518C77.4416 423.746 77.4236 423.98 77.3876 424.22H69.8456ZM72.9596 420.242C72.1196 420.242 71.4236 420.482 70.8716 420.962C70.3196 421.43 69.9776 422.06 69.8456 422.852H75.8576C75.7256 422 75.3896 421.352 74.8496 420.908C74.3096 420.464 73.6796 420.242 72.9596 420.242ZM83.4541 428.234C82.0981 428.234 80.9701 427.784 80.0701 426.884C79.1701 425.972 78.7201 424.844 78.7201 423.5C78.7201 422.156 79.1701 421.034 80.0701 420.134C80.9701 419.222 82.0981 418.766 83.4541 418.766C84.3421 418.766 85.1401 418.982 85.8481 419.414C86.5561 419.834 87.0841 420.404 87.4321 421.124L86.1181 421.88C85.8901 421.4 85.5361 421.016 85.0561 420.728C84.5881 420.44 84.0541 420.296 83.4541 420.296C82.5541 420.296 81.7981 420.602 81.1861 421.214C80.5861 421.826 80.2861 422.588 80.2861 423.5C80.2861 424.4 80.5861 425.156 81.1861 425.768C81.7981 426.38 82.5541 426.686 83.4541 426.686C84.0541 426.686 84.5941 426.548 85.0741 426.272C85.5541 425.984 85.9201 425.6 86.1721 425.12L87.5041 425.894C87.1201 426.602 86.5681 427.172 85.8481 427.604C85.1281 428.024 84.3301 428.234 83.4541 428.234ZM93.5323 418.766C94.5883 418.766 95.4343 419.102 96.0703 419.774C96.7063 420.434 97.0243 421.334 97.0243 422.474V428H95.4583V422.564C95.4583 421.832 95.2603 421.268 94.8643 420.872C94.4683 420.464 93.9223 420.26 93.2263 420.26C92.4463 420.26 91.8163 420.506 91.3363 420.998C90.8563 421.478 90.6163 422.222 90.6163 423.23V428H89.0503V415.4H90.6163V420.296C91.2523 419.276 92.2243 418.766 93.5323 418.766ZM103.692 418.766C104.748 418.766 105.594 419.102 106.23 419.774C106.866 420.434 107.184 421.334 107.184 422.474V428H105.618V422.564C105.618 421.832 105.42 421.268 105.024 420.872C104.628 420.464 104.082 420.26 103.386 420.26C102.606 420.26 101.976 420.506 101.496 420.998C101.016 421.478 100.776 422.222 100.776 423.23V428H99.2105V419H100.776V420.296C101.412 419.276 102.384 418.766 103.692 418.766ZM116.967 426.866C116.043 427.778 114.921 428.234 113.601 428.234C112.281 428.234 111.159 427.778 110.235 426.866C109.323 425.954 108.867 424.832 108.867 423.5C108.867 422.168 109.323 421.046 110.235 420.134C111.159 419.222 112.281 418.766 113.601 418.766C114.921 418.766 116.043 419.222 116.967 420.134C117.891 421.046 118.353 422.168 118.353 423.5C118.353 424.832 117.891 425.954 116.967 426.866ZM113.601 426.704C114.501 426.704 115.257 426.398 115.869 425.786C116.481 425.174 116.787 424.412 116.787 423.5C116.787 422.588 116.481 421.826 115.869 421.214C115.257 420.602 114.501 420.296 113.601 420.296C112.713 420.296 111.963 420.602 111.351 421.214C110.739 421.826 110.433 422.588 110.433 423.5C110.433 424.412 110.739 425.174 111.351 425.786C111.963 426.398 112.713 426.704 113.601 426.704ZM120.199 428V414.86H121.765V428H120.199ZM131.75 426.866C130.826 427.778 129.704 428.234 128.384 428.234C127.064 428.234 125.942 427.778 125.018 426.866C124.106 425.954 123.65 424.832 123.65 423.5C123.65 422.168 124.106 421.046 125.018 420.134C125.942 419.222 127.064 418.766 128.384 418.766C129.704 418.766 130.826 419.222 131.75 420.134C132.674 421.046 133.136 422.168 133.136 423.5C133.136 424.832 132.674 425.954 131.75 426.866ZM128.384 426.704C129.284 426.704 130.04 426.398 130.652 425.786C131.264 425.174 131.57 424.412 131.57 423.5C131.57 422.588 131.264 421.826 130.652 421.214C130.04 420.602 129.284 420.296 128.384 420.296C127.496 420.296 126.746 420.602 126.134 421.214C125.522 421.826 125.216 422.588 125.216 423.5C125.216 424.412 125.522 425.174 126.134 425.786C126.746 426.398 127.496 426.704 128.384 426.704ZM142.452 419H144V427.622C144 428.954 143.55 429.986 142.65 430.718C141.75 431.462 140.67 431.834 139.41 431.834C138.402 431.834 137.532 431.642 136.8 431.258C136.068 430.886 135.516 430.346 135.144 429.638L136.512 428.864C137.004 429.872 137.982 430.376 139.446 430.376C140.382 430.376 141.114 430.13 141.642 429.638C142.182 429.146 142.452 428.474 142.452 427.622V426.344C141.66 427.544 140.532 428.144 139.068 428.144C137.784 428.144 136.698 427.688 135.81 426.776C134.922 425.864 134.478 424.754 134.478 423.446C134.478 422.138 134.922 421.034 135.81 420.134C136.698 419.222 137.784 418.766 139.068 418.766C140.544 418.766 141.672 419.36 142.452 420.548V419ZM136.962 425.732C137.574 426.344 138.336 426.65 139.248 426.65C140.16 426.65 140.922 426.344 141.534 425.732C142.146 425.12 142.452 424.358 142.452 423.446C142.452 422.546 142.146 421.79 141.534 421.178C140.922 420.566 140.16 420.26 139.248 420.26C138.336 420.26 137.574 420.566 136.962 421.178C136.35 421.79 136.044 422.546 136.044 423.446C136.044 424.358 136.35 425.12 136.962 425.732ZM147.165 417.362C146.865 417.362 146.613 417.26 146.409 417.056C146.205 416.852 146.103 416.606 146.103 416.318C146.103 416.03 146.205 415.784 146.409 415.58C146.613 415.364 146.865 415.256 147.165 415.256C147.453 415.256 147.699 415.364 147.903 415.58C148.107 415.784 148.209 416.03 148.209 416.318C148.209 416.606 148.107 416.852 147.903 417.056C147.699 417.26 147.453 417.362 147.165 417.362ZM146.373 428V419H147.939V428H146.373ZM151.426 424.22C151.582 425.024 151.948 425.648 152.524 426.092C153.112 426.536 153.832 426.758 154.684 426.758C155.872 426.758 156.736 426.32 157.276 425.444L158.608 426.2C157.732 427.556 156.412 428.234 154.648 428.234C153.22 428.234 152.056 427.79 151.156 426.902C150.268 426.002 149.824 424.868 149.824 423.5C149.824 422.144 150.262 421.016 151.138 420.116C152.014 419.216 153.148 418.766 154.54 418.766C155.86 418.766 156.934 419.234 157.762 420.17C158.602 421.094 159.022 422.21 159.022 423.518C159.022 423.746 159.004 423.98 158.968 424.22H151.426ZM154.54 420.242C153.7 420.242 153.004 420.482 152.452 420.962C151.9 421.43 151.558 422.06 151.426 422.852H157.438C157.306 422 156.97 421.352 156.43 420.908C155.89 420.464 155.26 420.242 154.54 420.242ZM161.82 421.43C161.82 421.778 161.994 422.06 162.342 422.276C162.69 422.48 163.11 422.648 163.602 422.78C164.094 422.9 164.586 423.044 165.078 423.212C165.57 423.368 165.99 423.644 166.338 424.04C166.686 424.424 166.86 424.922 166.86 425.534C166.86 426.35 166.542 427.004 165.906 427.496C165.282 427.988 164.478 428.234 163.494 428.234C162.618 428.234 161.868 428.042 161.244 427.658C160.62 427.274 160.176 426.764 159.912 426.128L161.262 425.354C161.406 425.786 161.676 426.128 162.072 426.38C162.468 426.632 162.942 426.758 163.494 426.758C164.01 426.758 164.436 426.662 164.772 426.47C165.108 426.266 165.276 425.954 165.276 425.534C165.276 425.186 165.102 424.91 164.754 424.706C164.406 424.49 163.986 424.322 163.494 424.202C163.002 424.07 162.51 423.92 162.018 423.752C161.526 423.584 161.106 423.308 160.758 422.924C160.41 422.54 160.236 422.048 160.236 421.448C160.236 420.668 160.536 420.026 161.136 419.522C161.748 419.018 162.51 418.766 163.422 418.766C164.154 418.766 164.802 418.934 165.366 419.27C165.942 419.594 166.374 420.05 166.662 420.638L165.348 421.376C165.024 420.608 164.382 420.224 163.422 420.224C162.978 420.224 162.6 420.332 162.288 420.548C161.976 420.752 161.82 421.046 161.82 421.43Z" fill="black"/>
<path d="M364.25 518.125H349.75C348.748 518.125 347.938 518.936 347.938 519.938V523.563C347.938 526.561 350.377 529 353.375 529H360.625C363.623 529 366.062 526.561 366.062 523.563V519.938C366.062 518.936 365.252 518.125 364.25 518.125Z" fill="#4B3AD1"/>
<path d="M357 498.946C360.421 498.946 363.195 496.173 363.195 492.751C363.195 489.33 360.421 486.557 357 486.557C353.578 486.557 350.805 489.33 350.805 492.751C350.805 496.173 353.578 498.946 357 498.946Z" fill="#4B3AD1"/>
<path d="M378.551 489.743C377.264 480.083 369.271 472.271 359.574 471.147C353.357 470.422 347.14 472.398 342.518 476.512C337.896 480.644 335.25 486.553 335.25 492.751C335.25 500.907 339.745 508.302 346.977 512.054C347.557 512.362 347.938 512.978 347.938 513.649V514.827C348.499 514.609 349.116 514.5 349.75 514.5H364.25C364.884 514.5 365.501 514.609 366.062 514.827V513.649C366.062 512.978 366.425 512.362 367.023 512.054C375.27 507.776 379.783 499.022 378.551 489.743ZM367.875 494.564H366.645C366.39 495.925 365.857 497.188 365.102 498.29L365.97 499.159C366.678 499.867 366.678 501.014 365.97 501.722C365.616 502.076 365.153 502.253 364.689 502.253C364.225 502.253 363.762 502.076 363.408 501.722L362.539 500.853C361.437 501.608 360.174 502.141 358.812 502.396V503.626C358.812 504.628 358.002 505.439 357 505.439C355.998 505.439 355.188 504.628 355.188 503.626V502.396C353.826 502.141 352.563 501.608 351.461 500.853L350.592 501.722C350.238 502.076 349.775 502.253 349.311 502.253C348.847 502.253 348.384 502.076 348.03 501.722C347.322 501.014 347.322 499.867 348.03 499.159L348.898 498.29C348.143 497.188 347.61 495.925 347.355 494.564H346.125C345.123 494.564 344.312 493.753 344.312 492.751C344.312 491.75 345.123 490.939 346.125 490.939H347.355C347.61 489.578 348.143 488.315 348.898 487.213L348.03 486.344C347.322 485.636 347.322 484.489 348.03 483.781C348.738 483.073 349.884 483.073 350.593 483.781L351.462 484.65C352.563 483.894 353.827 483.362 355.188 483.106V481.877C355.188 480.875 355.998 480.064 357 480.064C358.002 480.064 358.813 480.875 358.813 481.877V483.106C360.174 483.362 361.437 483.894 362.539 484.65L363.408 483.781C364.116 483.073 365.263 483.073 365.971 483.781C366.679 484.489 366.679 485.636 365.971 486.344L365.102 487.213C365.858 488.315 366.39 489.578 366.646 490.939H367.875C368.877 490.939 369.688 491.75 369.688 492.751C369.688 493.753 368.877 494.564 367.875 494.564Z" fill="#4B3AD1"/>
<path d="M331.625 494.564H329.812C328.811 494.564 328 493.753 328 492.752C328 491.75 328.811 490.939 329.812 490.939H331.625C332.627 490.939 333.438 491.75 333.438 492.752C333.438 493.753 332.627 494.564 331.625 494.564Z" fill="#4B3AD1"/>
<path d="M339.057 476.622C338.593 476.622 338.129 476.445 337.775 476.091L336.494 474.81C335.786 474.102 335.786 472.955 336.494 472.247C337.202 471.539 338.349 471.539 339.057 472.247L340.338 473.528C341.046 474.236 341.046 475.383 340.338 476.091C339.984 476.445 339.52 476.622 339.057 476.622Z" fill="#4B3AD1"/>
<path d="M337.775 513.787C337.311 513.787 336.848 513.61 336.494 513.256C335.786 512.548 335.786 511.401 336.494 510.693L337.775 509.412C338.483 508.704 339.63 508.704 340.338 509.412C341.046 510.12 341.046 511.267 340.338 511.975L339.057 513.256C338.703 513.61 338.239 513.787 337.775 513.787Z" fill="#4B3AD1"/>
<path d="M384.188 494.564H382.375C381.373 494.564 380.562 493.753 380.562 492.752C380.562 491.75 381.373 490.939 382.375 490.939H384.188C385.189 490.939 386 491.75 386 492.752C386 493.753 385.189 494.564 384.188 494.564Z" fill="#4B3AD1"/>
<path d="M374.943 476.622C374.479 476.622 374.016 476.445 373.662 476.091C372.954 475.383 372.954 474.236 373.662 473.528L374.943 472.247C375.651 471.539 376.798 471.539 377.506 472.247C378.214 472.955 378.214 474.102 377.506 474.81L376.225 476.091C375.871 476.445 375.407 476.622 374.943 476.622Z" fill="#4B3AD1"/>
<path d="M376.225 513.787C375.761 513.787 375.297 513.61 374.943 513.256L373.662 511.975C372.954 511.267 372.954 510.12 373.662 509.412C374.37 508.704 375.517 508.704 376.225 509.412L377.506 510.693C378.214 511.401 378.214 512.548 377.506 513.256C377.152 513.61 376.688 513.787 376.225 513.787Z" fill="#4B3AD1"/>
<path d="M296.667 548.404L298.107 548.405L298.104 561.005L296.448 561.004L296.451 550.204L293.769 550.996L293.355 549.556L296.667 548.404ZM308.769 559.459C307.917 560.647 306.722 561.241 305.186 561.241C303.65 561.24 302.457 560.646 301.605 559.458C300.753 558.269 300.327 556.685 300.328 554.705C300.328 552.725 300.755 551.141 301.607 549.954C302.459 548.766 303.654 548.172 305.19 548.173C306.726 548.173 307.919 548.767 308.771 549.955C309.623 551.144 310.048 552.728 310.048 554.708C310.047 556.688 309.621 558.272 308.769 559.459ZM302.829 558.324C303.381 559.176 304.167 559.602 305.187 559.603C306.207 559.603 306.993 559.177 307.545 558.325C308.109 557.473 308.392 556.267 308.392 554.707C308.392 553.147 308.111 551.941 307.547 551.089C306.995 550.225 306.209 549.793 305.189 549.793C304.169 549.792 303.383 550.218 302.831 551.07C302.279 551.922 302.002 553.134 302.002 554.706C302.002 556.266 302.277 557.472 302.829 558.324ZM319.64 553.954L319.64 555.448L316.508 555.447L316.507 558.579L315.013 558.579L315.014 555.447L311.9 555.446L311.9 553.952L315.014 553.953L315.015 550.839L316.509 550.839L316.508 553.953L319.64 553.954ZM335.894 548.414L331.428 555.919L331.427 561.013L329.753 561.012L329.754 555.9L325.31 548.411L327.182 548.412L330.601 554.317L334.022 548.413L335.894 548.414ZM336.52 557.234C336.676 558.038 337.042 558.662 337.618 559.106C338.206 559.55 338.926 559.773 339.778 559.773C340.966 559.773 341.83 559.335 342.37 558.459L343.702 559.216C342.825 560.572 341.505 561.249 339.741 561.249C338.313 561.249 337.149 560.804 336.25 559.916C335.362 559.016 334.918 557.882 334.918 556.514C334.919 555.158 335.357 554.03 336.233 553.13C337.109 552.23 338.243 551.781 339.635 551.781C340.955 551.781 342.029 552.249 342.857 553.186C343.697 554.11 344.117 555.226 344.116 556.534C344.116 556.762 344.098 556.996 344.062 557.236L336.52 557.234ZM339.635 553.257C338.795 553.257 338.099 553.496 337.547 553.976C336.995 554.444 336.653 555.074 336.52 555.866L342.532 555.868C342.401 555.016 342.065 554.367 341.525 553.923C340.985 553.479 340.355 553.257 339.635 553.257ZM353.352 552.018L354.918 552.019L354.916 561.019L353.35 561.018L353.35 559.47C352.57 560.658 351.436 561.252 349.948 561.251C348.688 561.251 347.614 560.795 346.726 559.883C345.838 558.958 345.395 557.836 345.395 556.516C345.395 555.196 345.839 554.08 346.728 553.169C347.616 552.245 348.69 551.783 349.95 551.783C351.438 551.784 352.572 552.378 353.352 553.566L353.352 552.018ZM350.146 559.739C351.058 559.74 351.82 559.434 352.432 558.822C353.044 558.198 353.351 557.43 353.351 556.518C353.351 555.606 353.045 554.844 352.433 554.232C351.822 553.608 351.06 553.296 350.148 553.295C349.248 553.295 348.492 553.607 347.879 554.231C347.267 554.843 346.961 555.605 346.961 556.517C346.961 557.429 347.266 558.197 347.878 558.821C348.49 559.433 349.246 559.739 350.146 559.739ZM358.856 553.531C359.373 552.416 360.309 551.858 361.665 551.858L361.664 553.496C360.896 553.46 360.236 553.664 359.684 554.108C359.132 554.552 358.856 555.265 358.856 556.249L358.854 561.019L357.288 561.019L357.291 552.019L358.857 552.019L358.856 553.531ZM364.212 554.451C364.212 554.799 364.386 555.081 364.734 555.297C365.082 555.501 365.502 555.669 365.994 555.801C366.486 555.921 366.978 556.065 367.47 556.234C367.962 556.39 368.382 556.666 368.73 557.062C369.078 557.446 369.251 557.944 369.251 558.556C369.251 559.372 368.933 560.026 368.297 560.518C367.673 561.01 366.869 561.255 365.885 561.255C365.009 561.255 364.259 561.063 363.635 560.679C363.011 560.294 362.567 559.784 362.303 559.148L363.653 558.375C363.797 558.807 364.067 559.149 364.463 559.401C364.859 559.653 365.333 559.779 365.885 559.779C366.401 559.779 366.827 559.683 367.163 559.491C367.499 559.288 367.667 558.976 367.667 558.556C367.667 558.208 367.493 557.932 367.145 557.727C366.798 557.511 366.378 557.343 365.886 557.223C365.394 557.091 364.902 556.941 364.41 556.773C363.918 556.605 363.498 556.329 363.15 555.945C362.802 555.56 362.628 555.068 362.628 554.468C362.628 553.688 362.929 553.046 363.529 552.543C364.141 552.039 364.903 551.787 365.815 551.787C366.547 551.787 367.195 551.955 367.759 552.292C368.335 552.616 368.767 553.072 369.054 553.66L367.74 554.398C367.416 553.63 366.775 553.245 365.815 553.245C365.371 553.245 364.993 553.353 364.68 553.569C364.368 553.773 364.212 554.067 364.212 554.451ZM383.201 559.891C382.277 560.803 381.155 561.259 379.835 561.259C378.515 561.258 377.393 560.802 376.469 559.89C375.557 558.977 375.102 557.855 375.102 556.523C375.102 555.191 375.559 554.069 376.471 553.158C377.395 552.246 378.517 551.79 379.837 551.791C381.157 551.791 382.279 552.247 383.203 553.159C384.127 554.072 384.588 555.194 384.588 556.526C384.588 557.858 384.125 558.98 383.201 559.891ZM379.835 559.729C380.735 559.729 381.491 559.423 382.103 558.811C382.716 558.199 383.022 557.437 383.022 556.525C383.022 555.613 382.716 554.851 382.104 554.239C381.493 553.627 380.737 553.321 379.837 553.321C378.949 553.32 378.199 553.626 377.586 554.238C376.974 554.85 376.668 555.612 376.668 556.524C376.668 557.436 376.974 558.198 377.585 558.81C378.197 559.422 378.947 559.728 379.835 559.729ZM390.728 549.705C389.144 549.573 388.352 550.257 388.351 551.757L388.351 552.027L390.727 552.027L390.727 553.539L388.351 553.539L388.349 561.027L386.783 561.026L386.785 553.538L385.345 553.538L385.345 552.026L386.785 552.026L386.785 551.756C386.786 550.544 387.122 549.626 387.794 549.002C388.478 548.379 389.456 548.109 390.728 548.193L390.728 549.705ZM404.646 548.43L404.646 550.014L400.92 550.014L400.917 561.03L399.261 561.029L399.264 550.013L395.556 550.012L395.556 548.428L404.646 548.43ZM405.602 557.251C405.758 558.055 406.124 558.679 406.7 559.123C407.288 559.567 408.008 559.789 408.86 559.79C410.048 559.79 410.912 559.352 411.452 558.476L412.784 559.232C411.907 560.588 410.587 561.266 408.823 561.266C407.395 561.265 406.231 560.821 405.332 559.933C404.444 559.032 404 557.898 404 556.53C404.001 555.174 404.439 554.046 405.315 553.147C406.191 552.247 407.326 551.797 408.718 551.797C410.038 551.798 411.111 552.266 411.939 553.202C412.779 554.126 413.199 555.243 413.198 556.551C413.198 556.779 413.18 557.013 413.144 557.253L405.602 557.251ZM408.717 553.273C407.877 553.273 407.181 553.513 406.629 553.993C406.077 554.461 405.735 555.091 405.603 555.883L411.615 555.884C411.483 555.032 411.147 554.384 410.607 553.94C410.067 553.496 409.437 553.274 408.717 553.273ZM419.21 561.268C417.854 561.268 416.726 560.817 415.826 559.917C414.926 559.005 414.477 557.877 414.477 556.533C414.477 555.189 414.928 554.067 415.828 553.167C416.728 552.255 417.856 551.8 419.212 551.8C420.1 551.8 420.898 552.016 421.606 552.449C422.314 552.869 422.842 553.439 423.189 554.159L421.875 554.915C421.647 554.435 421.294 554.051 420.814 553.762C420.346 553.474 419.812 553.33 419.212 553.33C418.312 553.33 417.556 553.636 416.943 554.247C416.343 554.859 416.043 555.621 416.043 556.533C416.043 557.433 416.343 558.189 416.942 558.801C417.554 559.414 418.31 559.72 419.21 559.72C419.81 559.72 420.35 559.582 420.83 559.306C421.31 559.019 421.676 558.635 421.929 558.155L423.26 558.929C422.876 559.637 422.324 560.207 421.604 560.639C420.884 561.058 420.086 561.268 419.21 561.268ZM429.29 551.802C430.346 551.803 431.192 552.139 431.828 552.811C432.464 553.471 432.782 554.371 432.781 555.511L432.78 561.037L431.214 561.037L431.215 555.601C431.215 554.869 431.018 554.305 430.622 553.909C430.226 553.501 429.68 553.297 428.984 553.296C428.204 553.296 427.574 553.542 427.094 554.034C426.614 554.514 426.373 555.258 426.373 556.266L426.372 561.036L424.806 561.035L424.809 548.435L426.375 548.436L426.374 553.332C427.01 552.312 427.982 551.802 429.29 551.802ZM282.75 570.401L284.424 570.402L284.421 583.002L282.747 583.001L282.75 570.401ZM294.957 570.404L296.631 570.404L296.628 583.004L295.278 583.004L288.8 573.589L288.798 583.003L287.124 583.002L287.127 570.402L288.477 570.403L294.955 579.8L294.957 570.404ZM306.616 570.407L308.182 570.407L308.179 583.007L306.613 583.007L306.613 581.459C305.833 582.647 304.699 583.24 303.211 583.24C301.951 583.24 300.877 582.784 299.989 581.871C299.102 580.947 298.658 579.825 298.658 578.505C298.658 577.185 299.103 576.069 299.991 575.157C300.879 574.234 301.953 573.772 303.213 573.772C304.701 573.772 305.835 574.367 306.615 575.555L306.616 570.407ZM303.409 581.728C304.321 581.728 305.083 581.423 305.696 580.811C306.308 580.187 306.614 579.419 306.614 578.507C306.614 577.595 306.309 576.833 305.697 576.221C305.085 575.597 304.323 575.284 303.411 575.284C302.511 575.284 301.755 575.596 301.143 576.22C300.531 576.831 300.224 577.593 300.224 578.505C300.224 579.417 300.53 580.185 301.142 580.81C301.753 581.422 302.509 581.728 303.409 581.728ZM316.764 574.009L318.33 574.01L318.328 583.01L316.762 583.009L316.762 581.713C316.126 582.733 315.154 583.243 313.846 583.243C312.79 583.242 311.944 582.912 311.308 582.252C310.672 581.58 310.354 580.674 310.355 579.534L310.356 574.008L311.922 574.008L311.921 579.444C311.92 580.176 312.118 580.746 312.514 581.154C312.91 581.55 313.456 581.749 314.152 581.749C314.932 581.749 315.562 581.509 316.042 581.029C316.522 580.537 316.762 579.787 316.763 578.779L316.764 574.009ZM322.046 576.441C322.046 576.789 322.22 577.071 322.568 577.287C322.916 577.491 323.336 577.659 323.828 577.791C324.319 577.911 324.811 578.055 325.303 578.223C325.795 578.38 326.215 578.656 326.563 579.052C326.911 579.436 327.085 579.934 327.085 580.546C327.085 581.362 326.767 582.016 326.13 582.508C325.506 582.999 324.702 583.245 323.718 583.245C322.842 583.245 322.092 583.053 321.468 582.668C320.844 582.284 320.401 581.774 320.137 581.138L321.487 580.364C321.631 580.797 321.901 581.139 322.297 581.391C322.693 581.643 323.167 581.769 323.719 581.769C324.235 581.769 324.661 581.673 324.997 581.481C325.333 581.277 325.501 580.965 325.501 580.545C325.501 580.197 325.327 579.921 324.979 579.717C324.631 579.501 324.211 579.333 323.719 579.213C323.227 579.081 322.735 578.931 322.243 578.763C321.751 578.595 321.331 578.318 320.983 577.934C320.636 577.55 320.462 577.058 320.462 576.458C320.462 575.678 320.762 575.036 321.362 574.532C321.974 574.029 322.736 573.777 323.648 573.777C324.38 573.777 325.028 573.945 325.592 574.281C326.168 574.606 326.6 575.062 326.888 575.65L325.574 576.387C325.25 575.619 324.608 575.235 323.648 575.235C323.204 575.235 322.826 575.343 322.514 575.559C322.202 575.763 322.046 576.057 322.046 576.441ZM333.485 575.525L331.091 575.525L331.089 580.403C331.089 580.847 331.173 581.165 331.341 581.357C331.521 581.537 331.791 581.633 332.151 581.645C332.511 581.645 332.955 581.633 333.483 581.609L333.483 583.013C332.115 583.193 331.113 583.085 330.477 582.689C329.841 582.28 329.523 581.518 329.523 580.402L329.525 575.524L327.743 575.524L327.743 574.012L329.525 574.012L329.526 571.96L331.092 571.493L331.091 574.013L333.485 574.013L333.485 575.525ZM336.957 575.526C337.474 574.41 338.41 573.853 339.766 573.853L339.765 575.491C338.997 575.455 338.337 575.659 337.785 576.102C337.233 576.546 336.957 577.26 336.957 578.244L336.956 583.014L335.39 583.014L335.392 574.014L336.958 574.014L336.957 575.526ZM347.773 574.017L349.447 574.017L345.773 583.574C345.389 584.594 344.849 585.368 344.152 585.896C343.468 586.436 342.676 586.676 341.776 586.615L341.777 585.157C342.881 585.242 343.691 584.63 344.207 583.322L344.369 582.98L340.447 574.015L342.121 574.015L345.18 581.072L347.773 574.017ZM357.089 581.435L362.939 581.436L362.939 583.02L355.415 583.019L355.418 570.419L362.852 570.42L362.852 572.004L357.092 572.003L357.091 575.873L362.401 575.874L362.4 577.44L357.09 577.439L357.089 581.435ZM372.61 583.023L370.774 583.022L368.255 579.62L365.716 583.021L363.88 583.021L367.337 578.396L364.08 574.021L365.934 574.021L368.255 577.154L370.578 574.022L372.414 574.023L369.173 578.378L372.61 583.023ZM379.032 573.79C380.292 573.791 381.366 574.253 382.253 575.177C383.141 576.089 383.585 577.205 383.585 578.525C383.584 579.845 383.14 580.967 382.252 581.891C381.364 582.803 380.289 583.259 379.029 583.258C377.541 583.258 376.408 582.664 375.628 581.476L375.627 586.624L374.061 586.623L374.064 574.023L375.63 574.024L375.629 575.572C376.41 574.384 377.544 573.79 379.032 573.79ZM378.832 581.746C379.732 581.746 380.488 581.441 381.1 580.829C381.712 580.205 382.018 579.437 382.019 578.525C382.019 577.613 381.713 576.851 381.101 576.239C380.489 575.615 379.733 575.302 378.833 575.302C377.921 575.302 377.159 575.614 376.547 576.238C375.935 576.85 375.629 577.612 375.629 578.524C375.628 579.436 375.934 580.204 376.546 580.828C377.158 581.44 377.92 581.746 378.832 581.746ZM386.551 579.246C386.707 580.05 387.073 580.674 387.649 581.118C388.236 581.563 388.956 581.785 389.808 581.785C390.996 581.785 391.86 581.347 392.401 580.472L393.733 581.228C392.856 582.584 391.536 583.261 389.772 583.261C388.344 583.261 387.18 582.816 386.28 581.928C385.393 581.028 384.949 579.894 384.949 578.526C384.949 577.17 385.388 576.042 386.264 575.142C387.14 574.242 388.274 573.793 389.666 573.793C390.986 573.793 392.06 574.261 392.888 575.198C393.728 576.122 394.147 577.238 394.147 578.546C394.147 578.774 394.129 579.008 394.093 579.248L386.551 579.246ZM389.666 575.269C388.826 575.269 388.13 575.509 387.578 575.988C387.026 576.456 386.684 577.086 386.551 577.878L392.563 577.88C392.432 577.028 392.096 576.379 391.556 575.935C391.016 575.491 390.386 575.269 389.666 575.269ZM397.514 575.541C398.03 574.425 398.966 573.867 400.322 573.867L400.322 575.505C399.554 575.469 398.894 575.673 398.342 576.117C397.79 576.561 397.514 577.275 397.513 578.259L397.512 583.029L395.946 583.028L395.948 574.028L397.514 574.029L397.514 575.541ZM402.647 572.392C402.347 572.392 402.095 572.29 401.891 572.086C401.687 571.882 401.585 571.636 401.585 571.348C401.585 571.06 401.687 570.814 401.891 570.61C402.096 570.394 402.348 570.286 402.648 570.286C402.936 570.286 403.182 570.394 403.385 570.61C403.589 570.814 403.691 571.06 403.691 571.348C403.691 571.636 403.589 571.882 403.385 572.086C403.181 572.29 402.935 572.392 402.647 572.392ZM401.852 583.03L401.855 574.03L403.421 574.03L403.418 583.03L401.852 583.03ZM406.906 579.251C407.062 580.055 407.428 580.679 408.004 581.123C408.592 581.567 409.312 581.79 410.164 581.79C411.352 581.79 412.216 581.352 412.756 580.476L414.088 581.233C413.212 582.589 411.891 583.266 410.127 583.266C408.699 583.265 407.536 582.821 406.636 581.933C405.748 581.033 405.304 579.899 405.305 578.531C405.305 577.175 405.743 576.047 406.619 575.147C407.496 574.247 408.63 573.797 410.022 573.798C411.342 573.798 412.416 574.266 413.243 575.203C414.083 576.127 414.503 577.243 414.503 578.551C414.503 578.779 414.485 579.013 414.448 579.253L406.906 579.251ZM410.021 575.274C409.181 575.274 408.485 575.513 407.933 575.993C407.381 576.461 407.039 577.091 406.907 577.883L412.919 577.884C412.787 577.032 412.451 576.384 411.911 575.94C411.371 575.496 410.741 575.274 410.021 575.274ZM420.786 573.8C421.842 573.801 422.688 574.137 423.324 574.809C423.96 575.469 424.277 576.369 424.277 577.509L424.276 583.035L422.71 583.035L422.711 577.599C422.711 576.867 422.513 576.303 422.117 575.907C421.721 575.499 421.176 575.294 420.48 575.294C419.7 575.294 419.069 575.54 418.589 576.032C418.109 576.512 417.869 577.256 417.869 578.264L417.868 583.034L416.302 583.033L416.304 574.033L417.87 574.034L417.87 575.33C418.506 574.31 419.478 573.8 420.786 573.8ZM430.692 583.271C429.336 583.27 428.208 582.82 427.308 581.92C426.408 581.008 425.959 579.88 425.959 578.536C425.959 577.192 426.41 576.07 427.31 575.17C428.21 574.258 429.338 573.802 430.694 573.803C431.582 573.803 432.38 574.019 433.088 574.451C433.796 574.872 434.324 575.442 434.671 576.162L433.357 576.917C433.129 576.437 432.776 576.053 432.296 575.765C431.828 575.477 431.294 575.333 430.694 575.333C429.794 575.333 429.038 575.638 428.425 576.25C427.825 576.862 427.525 577.624 427.525 578.536C427.525 579.436 427.825 580.192 428.424 580.804C429.036 581.416 429.792 581.723 430.692 581.723C431.292 581.723 431.832 581.585 432.312 581.309C432.792 581.021 433.158 580.637 433.411 580.157L434.742 580.932C434.358 581.64 433.806 582.21 433.086 582.641C432.366 583.061 431.568 583.271 430.692 583.271ZM437.264 579.258C437.42 580.062 437.786 580.686 438.361 581.131C438.949 581.575 439.669 581.797 440.521 581.797C441.709 581.797 442.573 581.36 443.114 580.484L444.445 581.24C443.569 582.596 442.249 583.274 440.485 583.273C439.057 583.273 437.893 582.829 436.993 581.94C436.105 581.04 435.662 579.906 435.662 578.538C435.662 577.182 436.101 576.054 436.977 575.154C437.853 574.254 438.987 573.805 440.379 573.805C441.699 573.805 442.773 574.274 443.601 575.21C444.441 576.134 444.86 577.25 444.86 578.558C444.86 578.786 444.842 579.02 444.806 579.26L437.264 579.258ZM440.379 575.281C439.539 575.281 438.843 575.521 438.291 576.001C437.739 576.468 437.396 577.098 437.264 577.89L443.276 577.892C443.144 577.04 442.809 576.392 442.269 575.948C441.729 575.503 441.099 575.281 440.379 575.281Z" fill="black"/>
<path d="M237.887 320L232.987 302.5H237.812L240.512 313.525L243.637 302.5H247.162L250.287 313.525L253.012 302.5H257.812L252.937 320H248.212L245.412 310.125L242.612 320H237.887ZM266.296 307.15C267.646 307.15 268.746 307.617 269.596 308.55C270.463 309.467 270.896 310.792 270.896 312.525V320H266.746V313.05C266.746 312.4 266.571 311.908 266.221 311.575C265.888 311.242 265.438 311.075 264.871 311.075C264.221 311.075 263.713 311.275 263.346 311.675C262.996 312.058 262.821 312.617 262.821 313.35V320H258.671V302.5H262.821V308.75C263.571 307.683 264.73 307.15 266.296 307.15ZM280.83 307.5H285.43L281.155 319.8C280.488 321.683 279.546 323.042 278.33 323.875C277.113 324.708 275.538 325.083 273.605 325V321.1C274.488 321.1 275.155 320.992 275.605 320.775C276.055 320.558 276.421 320.167 276.705 319.6L271.705 307.5H276.355L278.88 314.75L280.83 307.5ZM296.264 311.15C296.264 311.383 296.473 311.575 296.889 311.725C297.323 311.875 297.839 312.017 298.439 312.15C299.056 312.283 299.664 312.475 300.264 312.725C300.881 312.958 301.398 313.367 301.814 313.95C302.248 314.533 302.464 315.267 302.464 316.15C302.464 317.583 301.931 318.642 300.864 319.325C299.798 320.008 298.531 320.35 297.064 320.35C294.264 320.35 292.398 319.358 291.464 317.375L295.089 315.55C295.406 316.467 296.056 316.925 297.039 316.925C297.789 316.925 298.164 316.7 298.164 316.25C298.164 316.017 297.956 315.825 297.539 315.675C297.123 315.525 296.614 315.375 296.014 315.225C295.414 315.075 294.814 314.875 294.214 314.625C293.614 314.375 293.106 313.975 292.689 313.425C292.273 312.858 292.064 312.167 292.064 311.35C292.064 310.017 292.556 308.983 293.539 308.25C294.523 307.517 295.706 307.15 297.089 307.15C299.556 307.15 301.273 308.117 302.239 310.05L298.739 311.625C298.373 310.908 297.856 310.55 297.189 310.55C296.573 310.55 296.264 310.75 296.264 311.15ZM311.706 307.15C313.056 307.15 314.156 307.617 315.006 308.55C315.873 309.467 316.306 310.792 316.306 312.525V320H312.156V313.05C312.156 312.4 311.981 311.908 311.631 311.575C311.298 311.242 310.848 311.075 310.281 311.075C309.631 311.075 309.123 311.275 308.756 311.675C308.406 312.058 308.231 312.617 308.231 313.35V320H304.081V302.5H308.231V308.75C308.981 307.683 310.14 307.15 311.706 307.15ZM324.609 320.35C322.759 320.35 321.184 319.717 319.884 318.45C318.584 317.167 317.934 315.6 317.934 313.75C317.934 311.9 318.584 310.342 319.884 309.075C321.184 307.792 322.759 307.15 324.609 307.15C326.476 307.15 328.051 307.792 329.334 309.075C330.634 310.342 331.284 311.9 331.284 313.75C331.284 315.6 330.634 317.167 329.334 318.45C328.051 319.717 326.476 320.35 324.609 320.35ZM324.609 316.35C325.343 316.35 325.943 316.108 326.409 315.625C326.893 315.142 327.134 314.517 327.134 313.75C327.134 312.983 326.893 312.358 326.409 311.875C325.943 311.392 325.343 311.15 324.609 311.15C323.893 311.15 323.293 311.392 322.809 311.875C322.343 312.358 322.109 312.983 322.109 313.75C322.109 314.517 322.343 315.142 322.809 315.625C323.293 316.108 323.893 316.35 324.609 316.35ZM341.035 307.5H345.185V320H341.035V318.75C340.285 319.817 339.126 320.35 337.56 320.35C336.21 320.35 335.101 319.892 334.235 318.975C333.385 318.042 332.96 316.708 332.96 314.975V307.5H337.11V314.45C337.11 315.1 337.276 315.592 337.61 315.925C337.96 316.258 338.418 316.425 338.985 316.425C339.635 316.425 340.135 316.233 340.485 315.85C340.851 315.45 341.035 314.883 341.035 314.15V307.5ZM347.587 320V301.75H351.737V320H347.587ZM362.931 302.5H367.081V320H362.931V318.85C362.081 319.85 360.897 320.35 359.381 320.35C357.714 320.35 356.314 319.725 355.181 318.475C354.064 317.208 353.506 315.633 353.506 313.75C353.506 311.867 354.064 310.3 355.181 309.05C356.314 307.783 357.714 307.15 359.381 307.15C360.897 307.15 362.081 307.65 362.931 308.65V302.5ZM358.406 315.725C358.889 316.225 359.522 316.475 360.306 316.475C361.089 316.475 361.722 316.225 362.206 315.725C362.689 315.225 362.931 314.567 362.931 313.75C362.931 312.933 362.689 312.275 362.206 311.775C361.722 311.275 361.089 311.025 360.306 311.025C359.522 311.025 358.889 311.275 358.406 311.775C357.922 312.275 357.681 312.933 357.681 313.75C357.681 314.567 357.922 315.225 358.406 315.725ZM383.076 307.5H387.676L383.401 319.8C382.734 321.683 381.792 323.042 380.576 323.875C379.359 324.708 377.784 325.083 375.851 325V321.1C376.734 321.1 377.401 320.992 377.851 320.775C378.301 320.558 378.667 320.167 378.951 319.6L373.951 307.5H378.601L381.126 314.75L383.076 307.5ZM394.36 320.35C392.51 320.35 390.935 319.717 389.635 318.45C388.335 317.167 387.685 315.6 387.685 313.75C387.685 311.9 388.335 310.342 389.635 309.075C390.935 307.792 392.51 307.15 394.36 307.15C396.227 307.15 397.802 307.792 399.085 309.075C400.385 310.342 401.035 311.9 401.035 313.75C401.035 315.6 400.385 317.167 399.085 318.45C397.802 319.717 396.227 320.35 394.36 320.35ZM394.36 316.35C395.094 316.35 395.694 316.108 396.16 315.625C396.644 315.142 396.885 314.517 396.885 313.75C396.885 312.983 396.644 312.358 396.16 311.875C395.694 311.392 395.094 311.15 394.36 311.15C393.644 311.15 393.044 311.392 392.56 311.875C392.094 312.358 391.86 312.983 391.86 313.75C391.86 314.517 392.094 315.142 392.56 315.625C393.044 316.108 393.644 316.35 394.36 316.35ZM410.786 307.5H414.936V320H410.786V318.75C410.036 319.817 408.877 320.35 407.311 320.35C405.961 320.35 404.852 319.892 403.986 318.975C403.136 318.042 402.711 316.708 402.711 314.975V307.5H406.861V314.45C406.861 315.1 407.027 315.592 407.361 315.925C407.711 316.258 408.169 316.425 408.736 316.425C409.386 316.425 409.886 316.233 410.236 315.85C410.602 315.45 410.786 314.883 410.786 314.15V307.5ZM268.481 352.35C266.581 352.35 264.998 351.717 263.731 350.45C262.464 349.183 261.831 347.617 261.831 345.75C261.831 343.883 262.464 342.317 263.731 341.05C264.998 339.783 266.581 339.15 268.481 339.15C269.714 339.15 270.831 339.442 271.831 340.025C272.848 340.608 273.631 341.392 274.181 342.375L270.631 344.425C270.181 343.608 269.456 343.2 268.456 343.2C267.756 343.2 267.173 343.442 266.706 343.925C266.239 344.392 266.006 345 266.006 345.75C266.006 346.5 266.239 347.117 266.706 347.6C267.173 348.067 267.756 348.3 268.456 348.3C269.489 348.3 270.214 347.883 270.631 347.05L274.181 349.1C273.631 350.1 272.848 350.892 271.831 351.475C270.831 352.058 269.714 352.35 268.481 352.35ZM283.142 339.15C284.492 339.15 285.592 339.617 286.442 340.55C287.309 341.467 287.742 342.792 287.742 344.525V352H283.592V345.05C283.592 344.4 283.417 343.908 283.067 343.575C282.734 343.242 282.284 343.075 281.717 343.075C281.067 343.075 280.559 343.275 280.192 343.675C279.842 344.058 279.667 344.617 279.667 345.35V352H275.517V334.5H279.667V340.75C280.417 339.683 281.575 339.15 283.142 339.15ZM296.045 352.35C294.195 352.35 292.62 351.717 291.32 350.45C290.02 349.167 289.37 347.6 289.37 345.75C289.37 343.9 290.02 342.342 291.32 341.075C292.62 339.792 294.195 339.15 296.045 339.15C297.912 339.15 299.487 339.792 300.77 341.075C302.07 342.342 302.72 343.9 302.72 345.75C302.72 347.6 302.07 349.167 300.77 350.45C299.487 351.717 297.912 352.35 296.045 352.35ZM296.045 348.35C296.778 348.35 297.378 348.108 297.845 347.625C298.328 347.142 298.57 346.517 298.57 345.75C298.57 344.983 298.328 344.358 297.845 343.875C297.378 343.392 296.778 343.15 296.045 343.15C295.328 343.15 294.728 343.392 294.245 343.875C293.778 344.358 293.545 344.983 293.545 345.75C293.545 346.517 293.778 347.142 294.245 347.625C294.728 348.108 295.328 348.35 296.045 348.35ZM310.62 352.35C308.77 352.35 307.195 351.717 305.895 350.45C304.595 349.167 303.945 347.6 303.945 345.75C303.945 343.9 304.595 342.342 305.895 341.075C307.195 339.792 308.77 339.15 310.62 339.15C312.487 339.15 314.062 339.792 315.345 341.075C316.645 342.342 317.295 343.9 317.295 345.75C317.295 347.6 316.645 349.167 315.345 350.45C314.062 351.717 312.487 352.35 310.62 352.35ZM310.62 348.35C311.354 348.35 311.954 348.108 312.42 347.625C312.904 347.142 313.145 346.517 313.145 345.75C313.145 344.983 312.904 344.358 312.42 343.875C311.954 343.392 311.354 343.15 310.62 343.15C309.904 343.15 309.304 343.392 308.82 343.875C308.354 344.358 308.12 344.983 308.12 345.75C308.12 346.517 308.354 347.142 308.82 347.625C309.304 348.108 309.904 348.35 310.62 348.35ZM322.802 343.15C322.802 343.383 323.011 343.575 323.427 343.725C323.861 343.875 324.377 344.017 324.977 344.15C325.594 344.283 326.202 344.475 326.802 344.725C327.419 344.958 327.936 345.367 328.352 345.95C328.786 346.533 329.002 347.267 329.002 348.15C329.002 349.583 328.469 350.642 327.402 351.325C326.336 352.008 325.069 352.35 323.602 352.35C320.802 352.35 318.936 351.358 318.002 349.375L321.627 347.55C321.944 348.467 322.594 348.925 323.577 348.925C324.327 348.925 324.702 348.7 324.702 348.25C324.702 348.017 324.494 347.825 324.077 347.675C323.661 347.525 323.152 347.375 322.552 347.225C321.952 347.075 321.352 346.875 320.752 346.625C320.152 346.375 319.644 345.975 319.227 345.425C318.811 344.858 318.602 344.167 318.602 343.35C318.602 342.017 319.094 340.983 320.077 340.25C321.061 339.517 322.244 339.15 323.627 339.15C326.094 339.15 327.811 340.117 328.777 342.05L325.277 343.625C324.911 342.908 324.394 342.55 323.727 342.55C323.111 342.55 322.802 342.75 322.802 343.15ZM334.271 347.275C334.687 348.292 335.621 348.8 337.071 348.8C337.971 348.8 338.729 348.508 339.346 347.925L342.346 350.025C341.112 351.575 339.321 352.35 336.971 352.35C334.854 352.35 333.154 351.733 331.871 350.5C330.604 349.25 329.971 347.675 329.971 345.775C329.971 343.892 330.596 342.317 331.846 341.05C333.096 339.783 334.687 339.15 336.621 339.15C338.487 339.15 340.029 339.775 341.246 341.025C342.462 342.275 343.071 343.842 343.071 345.725C343.071 346.275 343.012 346.792 342.896 347.275H334.271ZM334.221 344.4H339.021C338.687 343.233 337.904 342.65 336.671 342.65C335.387 342.65 334.571 343.233 334.221 344.4ZM358.442 339.5H362.592V352H358.442V350.75C357.692 351.817 356.534 352.35 354.967 352.35C353.617 352.35 352.509 351.892 351.642 350.975C350.792 350.042 350.367 348.708 350.367 346.975V339.5H354.517V346.45C354.517 347.1 354.684 347.592 355.017 347.925C355.367 348.258 355.825 348.425 356.392 348.425C357.042 348.425 357.542 348.233 357.892 347.85C358.259 347.45 358.442 346.883 358.442 346.15V339.5ZM368.896 343.15C368.896 343.383 369.105 343.575 369.521 343.725C369.955 343.875 370.471 344.017 371.071 344.15C371.688 344.283 372.296 344.475 372.896 344.725C373.513 344.958 374.03 345.367 374.446 345.95C374.88 346.533 375.096 347.267 375.096 348.15C375.096 349.583 374.563 350.642 373.496 351.325C372.43 352.008 371.163 352.35 369.696 352.35C366.896 352.35 365.03 351.358 364.096 349.375L367.721 347.55C368.038 348.467 368.688 348.925 369.671 348.925C370.421 348.925 370.796 348.7 370.796 348.25C370.796 348.017 370.588 347.825 370.171 347.675C369.755 347.525 369.246 347.375 368.646 347.225C368.046 347.075 367.446 346.875 366.846 346.625C366.246 346.375 365.738 345.975 365.321 345.425C364.905 344.858 364.696 344.167 364.696 343.35C364.696 342.017 365.188 340.983 366.171 340.25C367.155 339.517 368.338 339.15 369.721 339.15C372.188 339.15 373.905 340.117 374.871 342.05L371.371 343.625C371.005 342.908 370.488 342.55 369.821 342.55C369.205 342.55 368.896 342.75 368.896 343.15ZM378.547 345.625C378.547 344.942 378.739 344.3 379.122 343.7C379.522 343.083 379.956 342.592 380.422 342.225C380.889 341.842 381.314 341.425 381.697 340.975C382.097 340.508 382.297 340.067 382.297 339.65C382.297 338.85 381.806 338.45 380.822 338.45C379.806 338.45 379.006 339.108 378.422 340.425L374.622 338.25C375.172 336.9 376.014 335.875 377.147 335.175C378.297 334.475 379.581 334.125 380.997 334.125C382.597 334.125 383.956 334.575 385.072 335.475C386.189 336.358 386.747 337.567 386.747 339.1C386.747 339.8 386.606 340.45 386.322 341.05C386.056 341.633 385.731 342.125 385.347 342.525C384.964 342.925 384.581 343.3 384.197 343.65C383.814 343.983 383.481 344.317 383.197 344.65C382.931 344.983 382.797 345.308 382.797 345.625H378.547ZM382.497 351.6C381.997 352.1 381.389 352.35 380.672 352.35C379.956 352.35 379.339 352.1 378.822 351.6C378.322 351.1 378.072 350.483 378.072 349.75C378.072 349.033 378.322 348.425 378.822 347.925C379.339 347.408 379.956 347.15 380.672 347.15C381.389 347.15 381.997 347.408 382.497 347.925C383.014 348.425 383.272 349.033 383.272 349.75C383.272 350.483 383.014 351.1 382.497 351.6Z" fill="black"/>
</svg>
