<svg width="36" height="36" viewBox="0 0 36 36" fill="none" xmlns="http://www.w3.org/2000/svg">
<g id="app-development (2) 1" clip-path="url(#clip0_463_249)">
<g id="Group">
<path id="Vector" d="M14.5743 28.6419C14.8786 28.6419 15.1253 28.3952 15.1253 28.0909C15.1253 27.7867 14.8786 27.54 14.5743 27.54C14.2701 27.54 14.0234 27.7867 14.0234 28.0909C14.0234 28.3952 14.2701 28.6419 14.5743 28.6419Z" fill="white"/>
<path id="Vector_2" d="M33.7964 15.671H28.4564V14.771C28.9855 14.6346 29.4982 14.4382 29.9837 14.1655L31.1292 14.8582C31.2655 14.9401 31.4182 14.9837 31.571 14.9837C31.7892 14.9837 32.0073 14.8964 32.171 14.7328L32.9455 13.9582C33.2237 13.6801 33.2728 13.2546 33.071 12.9164L32.3782 11.771C32.6237 11.3292 32.8201 10.8655 32.9564 10.3801L34.2546 10.0582C34.6364 9.96552 34.8982 9.62189 34.8982 9.23461V8.13825C34.8982 7.74552 34.631 7.40734 34.2546 7.31461L32.9564 6.99279C32.8201 6.50734 32.6292 6.0437 32.3782 5.60189L33.071 4.45643C33.2728 4.11825 33.2237 3.69279 32.9455 3.41461L32.171 2.63461C31.8928 2.35643 31.4673 2.30734 31.1292 2.50916L29.9837 3.20188C29.5419 2.95643 29.0782 2.76007 28.5928 2.6237L28.271 1.32552C28.1782 0.943703 27.8401 0.681885 27.4473 0.681885H26.3455C25.9528 0.681885 25.6146 0.949158 25.5219 1.32552L25.2001 2.6237C24.7146 2.76007 24.251 2.95098 23.8092 3.20188L22.6637 2.50916C22.331 2.30734 21.9001 2.35643 21.6219 2.63461L20.8473 3.40916C20.5692 3.68734 20.5146 4.11279 20.7219 4.45098L21.4146 5.59643C21.1637 6.03825 20.9728 6.50189 20.8364 6.98734L19.5382 7.30916C19.1564 7.40188 18.8946 7.74007 18.8946 8.13279V9.22916C18.8946 9.25643 18.9055 9.27825 18.9055 9.30007H2.2037C1.37461 9.30007 0.698242 9.97643 0.698242 10.8055V29.3455C0.698242 30.1746 1.37461 30.851 2.2037 30.851H10.1564V32.3073H8.31824C7.48915 32.3073 6.81279 32.9837 6.81279 33.8128V34.9092C6.81279 35.1328 6.99824 35.3182 7.22188 35.3182H33.7964C34.6255 35.3182 35.3019 34.6419 35.3019 33.8128V17.1764C35.3019 16.3473 34.6255 15.671 33.7964 15.671ZM26.951 9.30552H24.2073C24.1582 9.09825 24.1255 8.89098 24.1255 8.6837C24.1255 7.15643 25.3692 5.91279 26.8964 5.91279C28.4237 5.91279 29.6673 7.15643 29.6673 8.6837C29.6673 9.61643 29.2037 10.4564 28.4564 10.9637V10.811C28.4564 9.98188 27.7801 9.30552 26.951 9.30552ZM19.7346 8.10552L21.2673 7.72916C21.4146 7.69098 21.5346 7.57643 21.5673 7.4237C21.7037 6.85643 21.9273 6.31098 22.2382 5.81461C22.3201 5.6837 22.3201 5.52007 22.2382 5.38916L21.4255 3.99825L22.2437 3.21825L23.5964 4.03643C23.7273 4.11825 23.891 4.11825 24.0219 4.03643C24.5237 3.72552 25.0637 3.50188 25.631 3.36552C25.7782 3.33279 25.8982 3.21279 25.9364 3.06552L26.3455 1.50552L27.4746 1.52734L27.851 3.06007C27.8892 3.20734 28.0037 3.32734 28.1564 3.36007C28.7237 3.49643 29.2692 3.72007 29.7655 4.03098C29.8964 4.11279 30.0601 4.11279 30.191 4.03098L31.5819 3.21825L32.3619 4.03643L31.5437 5.38916C31.4619 5.52007 31.4673 5.6837 31.5437 5.81461C31.8546 6.31643 32.0782 6.85643 32.2146 7.4237C32.2473 7.57098 32.3673 7.69098 32.5146 7.72916L34.0746 8.13825L34.0528 9.26734L32.5201 9.6437C32.3728 9.68188 32.2528 9.79643 32.2201 9.94916C32.0837 10.5164 31.8601 11.0619 31.5492 11.5582C31.4673 11.6892 31.4673 11.8528 31.5492 11.9837L32.3619 13.3746L31.5437 14.1546L30.191 13.3364C30.0601 13.2546 29.8964 13.2601 29.7655 13.3364C29.351 13.5928 28.9146 13.7837 28.451 13.9201V11.8964C29.6892 11.2964 30.4801 10.0692 30.4801 8.67825C30.4801 6.69825 28.871 5.08916 26.891 5.08916C24.911 5.08916 23.3019 6.69825 23.3019 8.67825C23.3019 8.88552 23.3237 9.09279 23.3619 9.30007H19.8546C19.811 9.26734 19.7619 9.24007 19.7073 9.22916L19.7346 8.10552ZM2.2037 30.0328C1.82733 30.0328 1.51642 29.7219 1.51642 29.3455V26.1492H16.2655V30.0328H2.2037ZM16.2655 30.851V32.3073H10.9746V30.851H16.2655ZM7.63097 34.5001V33.8128C7.63097 33.4364 7.94188 33.1255 8.31824 33.1255H16.271V33.8128C16.271 34.0637 16.3364 34.2928 16.4455 34.5001H7.63097ZM16.2655 17.1764V25.3255H1.51642V10.811C1.51642 10.4292 1.82733 10.1237 2.2037 10.1237H26.951C27.3273 10.1237 27.6382 10.4346 27.6382 10.811V15.671H17.771C16.9419 15.671 16.2655 16.3473 16.2655 17.1764ZM34.4837 33.8128C34.4837 34.1892 34.1728 34.5001 33.7964 34.5001H17.771C17.3946 34.5001 17.0837 34.1892 17.0837 33.8128V20.111H34.4837V33.8128ZM34.4837 19.2928H17.0837V17.1819C17.0837 16.8001 17.3946 16.4946 17.771 16.4946H33.7964C34.1782 16.4946 34.4837 16.8055 34.4837 17.1819V19.2928Z" fill="white"/>
<path id="Vector_3" d="M5.99472 14.3945C5.83654 14.2363 5.57472 14.2363 5.41654 14.3945L3.562 16.2491C3.40381 16.4072 3.40381 16.6691 3.562 16.8272L5.41654 18.6818C5.49836 18.7636 5.602 18.8018 5.70563 18.8018C5.80927 18.8018 5.9129 18.7636 5.99472 18.6818C6.1529 18.5236 6.1529 18.2618 5.99472 18.1036L4.42927 16.5382L5.99472 14.9727C6.15836 14.8145 6.15836 14.5527 5.99472 14.3945Z" fill="white"/>
<path id="Vector_4" d="M11.607 14.3945C11.4488 14.2363 11.187 14.2363 11.0288 14.3945C10.8706 14.5527 10.8706 14.8145 11.0288 14.9727L12.5942 16.5382L11.0288 18.1036C10.8706 18.2618 10.8706 18.5236 11.0288 18.6818C11.1106 18.7636 11.2142 18.8018 11.3179 18.8018C11.4215 18.8018 11.5252 18.7636 11.607 18.6818L13.4615 16.8272C13.5379 16.7509 13.5815 16.6472 13.5815 16.5382C13.5815 16.4291 13.5379 16.3254 13.4615 16.2491L11.607 14.3945Z" fill="white"/>
<path id="Vector_5" d="M10.3306 12.6384C10.1233 12.5456 9.88329 12.6329 9.78511 12.8347L6.49056 19.8984C6.39238 20.1056 6.48511 20.3456 6.68693 20.4438C6.74147 20.4711 6.80147 20.482 6.86147 20.482C7.0142 20.482 7.16147 20.3947 7.23238 20.2474L10.5269 13.1838C10.6251 12.9765 10.5324 12.7311 10.3306 12.6384Z" fill="white"/>
<path id="Vector_6" d="M18.8671 30.7911H24.1253C24.3489 30.7911 24.5344 30.6056 24.5344 30.382C24.5344 30.1584 24.3489 29.9729 24.1253 29.9729H18.8671C18.6435 29.9729 18.458 30.1584 18.458 30.382C18.458 30.6056 18.6435 30.7911 18.8671 30.7911Z" fill="white"/>
<path id="Vector_7" d="M18.8671 33.1256H21.3816C21.6053 33.1256 21.7907 32.9401 21.7907 32.7165C21.7907 32.4928 21.6053 32.3074 21.3816 32.3074H18.8671C18.6435 32.3074 18.458 32.4928 18.458 32.7165C18.458 32.9401 18.6435 33.1256 18.8671 33.1256Z" fill="white"/>
<path id="Vector_8" d="M32.7005 29.9729H27.4423C27.2187 29.9729 27.0332 30.1584 27.0332 30.382C27.0332 30.6056 27.2187 30.7911 27.4423 30.7911H32.7005C32.9241 30.7911 33.1096 30.6056 33.1096 30.382C33.1096 30.1584 32.9241 29.9729 32.7005 29.9729Z" fill="white"/>
<path id="Vector_9" d="M29.9568 32.3074H27.4423C27.2187 32.3074 27.0332 32.4928 27.0332 32.7165C27.0332 32.9401 27.2187 33.1256 27.4423 33.1256H29.9568C30.1805 33.1256 30.3659 32.9401 30.3659 32.7165C30.3659 32.4928 30.1805 32.3074 29.9568 32.3074Z" fill="white"/>
<path id="Vector_10" d="M18.4743 28.1237C18.4798 28.151 18.4798 28.1837 18.4907 28.2055V28.211C18.5125 28.2546 18.5398 28.2928 18.567 28.3255C18.5779 28.3364 18.5834 28.3419 18.5943 28.3473C18.6216 28.3691 18.6489 28.391 18.6816 28.4073C18.6925 28.4128 18.7089 28.4182 18.7198 28.4237C18.7634 28.4401 18.8125 28.451 18.8616 28.451H32.6943C32.7434 28.451 32.7925 28.4401 32.8361 28.4237C32.847 28.4182 32.8634 28.4128 32.8743 28.4073C32.907 28.391 32.9343 28.3691 32.9616 28.3473C32.9725 28.3364 32.9834 28.331 32.9889 28.3255C33.0216 28.2928 33.0489 28.2546 33.0652 28.211C33.0652 28.211 33.0652 28.211 33.0652 28.2055C33.0761 28.1837 33.0761 28.1564 33.0816 28.1346C33.087 28.1073 33.0979 28.0801 33.0979 28.0473C33.0979 28.0473 33.0979 28.0473 33.0979 28.0419V21.8946C33.0979 21.8946 33.0979 21.8946 33.0979 21.8891C33.0979 21.8619 33.087 21.8346 33.0816 21.8019C33.0761 21.7801 33.0761 21.7528 33.0652 21.731C33.0652 21.731 33.0652 21.731 33.0652 21.7255C33.0598 21.7091 33.0434 21.6982 33.0325 21.6819C33.0161 21.6546 32.9998 21.6219 32.9725 21.6001C32.9561 21.5837 32.9343 21.5728 32.9125 21.5619C32.8907 21.5455 32.8634 21.5291 32.8361 21.5182C32.8089 21.5073 32.7761 21.5073 32.7489 21.5019C32.727 21.4964 32.7107 21.491 32.6834 21.491H18.867C18.8452 21.491 18.8289 21.5019 18.807 21.5019C18.7743 21.5073 18.7416 21.5073 18.7143 21.5182C18.687 21.5291 18.6707 21.5455 18.6489 21.5619C18.627 21.5782 18.6052 21.5891 18.5834 21.6055C18.5561 21.6273 18.5398 21.6601 18.5234 21.6928C18.5125 21.7091 18.5016 21.7201 18.4961 21.7364V21.7419C18.4852 21.7691 18.4852 21.7964 18.4798 21.8237C18.4743 21.851 18.4634 21.8728 18.4634 21.9001V21.9055V28.0582V28.0637C18.4579 28.0746 18.4689 28.1019 18.4743 28.1237ZM20.7925 27.6382L25.7834 25.4182L30.7743 27.6382H20.7925ZM32.2907 27.4146L26.7925 24.9655L32.2907 22.5164V27.4146ZM30.7743 22.3037L25.7834 24.5237L20.7925 22.3037H30.7743ZM19.2761 22.5219L24.7743 24.971L19.2761 27.4201V22.5219Z" fill="white"/>
<path id="Vector_11" d="M19.0148 17.3401C18.7093 17.3401 18.4639 17.5855 18.4639 17.8855C18.4639 18.191 18.7093 18.4365 19.0148 18.4365C19.3202 18.4365 19.5657 18.191 19.5657 17.8855C19.5657 17.5855 19.3202 17.3401 19.0148 17.3401Z" fill="white"/>
<path id="Vector_12" d="M20.9894 17.3401C20.6839 17.3401 20.4385 17.5855 20.4385 17.8855C20.4385 18.191 20.6839 18.4365 20.9894 18.4365C21.2948 18.4365 21.5403 18.191 21.5403 17.8855C21.5403 17.5855 21.2948 17.3401 20.9894 17.3401Z" fill="white"/>
<path id="Vector_13" d="M22.964 17.3401C22.6585 17.3401 22.4131 17.5855 22.4131 17.8855C22.4131 18.191 22.6585 18.4365 22.964 18.4365C23.2694 18.4365 23.5149 18.191 23.5149 17.8855C23.5149 17.5855 23.2694 17.3401 22.964 17.3401Z" fill="white"/>
</g>
</g>
<defs>
<clipPath id="clip0_463_249">
<rect width="36" height="36" fill="white"/>
</clipPath>
</defs>
</svg>
