<svg width="30" height="30" viewBox="0 0 30 30" fill="none" xmlns="http://www.w3.org/2000/svg">
<g id="arrow-right 1" clip-path="url(#clip0_463_242)">
<path id="Vector" d="M30 14.9999C30 6.71567 23.2843 -2.93551e-07 15.0001 -6.55667e-07C6.71585 -1.01778e-06 -8.80316e-05 6.71567 -8.83937e-05 14.9999C-8.87558e-05 23.2841 6.71585 30.0001 15.0001 30.0001C23.2805 29.9907 29.9907 23.2806 30 14.9999ZM1.50009 14.9999C1.5001 7.54403 7.54422 1.49991 15.0001 1.49991C22.456 1.49991 28.5001 7.54404 28.5001 14.9999C28.5001 22.4558 22.456 28.4999 15.0001 28.4999C7.54779 28.4914 1.50861 22.4522 1.50009 14.9999Z" fill="black"/>
<path id="Vector_2" d="M20.8146 13.2437C21.0873 12.9317 21.0554 12.4579 20.7437 12.1852C20.4317 11.9127 19.9579 11.9446 19.6852 12.2563L15 17.6111L10.3147 12.2561C10.0419 11.9441 9.56813 11.9125 9.2564 12.1849C8.94439 12.4577 8.91253 12.9315 9.18526 13.2435L14.4354 19.2434C14.5776 19.4062 14.7836 19.4996 15 19.4996C15.2165 19.4996 15.4222 19.4062 15.5647 19.2434L20.8146 13.2437Z" fill="black"/>
</g>
<defs>
<clipPath id="clip0_463_242">
<rect width="30" height="30" fill="white" transform="translate(30) rotate(90)"/>
</clipPath>
</defs>
</svg>
