<svg width="36" height="36" viewBox="0 0 36 36" fill="none" xmlns="http://www.w3.org/2000/svg">
<g id="mobile-development (1) 1">
<g id="Code_x2C__coding_x2C__mobile_x2C__development">
<g id="XMLID_1809_">
<g id="XMLID_1832_">
<g id="Group">
<g id="Group_2">
<path id="Vector" d="M19.6875 4.5H16.3125C16.002 4.5 15.75 4.248 15.75 3.9375C15.75 3.627 16.002 3.375 16.3125 3.375H19.6875C19.998 3.375 20.25 3.627 20.25 3.9375C20.25 4.248 19.998 4.5 19.6875 4.5Z" fill="white"/>
</g>
</g>
</g>
<g id="XMLID_1831_">
<g id="Group_3">
<g id="Group_4">
<path id="Vector_2" d="M24.1875 34.875H11.8125C10.2611 34.875 9 33.6127 9 32.0625V12.9375C9 12.627 9.252 12.375 9.5625 12.375C9.873 12.375 10.125 12.627 10.125 12.9375V32.0625C10.125 32.9929 10.8821 33.75 11.8125 33.75H24.1875C25.1179 33.75 25.875 32.9929 25.875 32.0625V12.9375C25.875 12.627 26.127 12.375 26.4375 12.375C26.748 12.375 27 12.627 27 12.9375V32.0625C27 33.6127 25.7389 34.875 24.1875 34.875Z" fill="white"/>
</g>
</g>
</g>
<g id="XMLID_1830_">
<g id="Group_5">
<g id="Group_6">
<path id="Vector_3" d="M26.4375 16.875C26.127 16.875 25.875 16.623 25.875 16.3125V3.9375C25.875 3.00713 25.1179 2.25 24.1875 2.25H11.8125C10.8821 2.25 10.125 3.00713 10.125 3.9375V16.3125C10.125 16.623 9.873 16.875 9.5625 16.875C9.252 16.875 9 16.623 9 16.3125V3.9375C9 2.38725 10.2611 1.125 11.8125 1.125H24.1875C25.7389 1.125 27 2.38725 27 3.9375V16.3125C27 16.623 26.748 16.875 26.4375 16.875Z" fill="white"/>
</g>
</g>
</g>
<g id="XMLID_1816_">
<g id="XMLID_1824_">
<g id="Group_7">
<g id="Group_8">
<path id="Vector_4" d="M29.8125 6.80625C29.502 6.80625 29.25 6.6105 29.25 6.3V6.1875C29.25 5.877 29.502 5.625 29.8125 5.625C30.123 5.625 30.375 5.877 30.375 6.1875C30.375 6.498 30.123 6.80625 29.8125 6.80625Z" fill="white"/>
</g>
</g>
</g>
<g id="XMLID_1818_">
<g id="Group_9">
<g id="Group_10">
<path id="Vector_5" d="M29.8125 9.05625C29.502 9.05625 29.25 8.8605 29.25 8.55V8.4375C29.25 8.127 29.502 7.875 29.8125 7.875C30.123 7.875 30.375 8.127 30.375 8.4375C30.375 8.748 30.123 9.05625 29.8125 9.05625Z" fill="white"/>
</g>
</g>
</g>
<g id="XMLID_1817_">
<g id="Group_11">
<g id="Group_12">
<path id="Vector_6" d="M29.8125 11.3063C29.502 11.3063 29.25 11.1105 29.25 10.8V10.6875C29.25 10.377 29.502 10.125 29.8125 10.125C30.123 10.125 30.375 10.377 30.375 10.6875C30.375 10.998 30.123 11.3063 29.8125 11.3063Z" fill="white"/>
</g>
</g>
</g>
</g>
<g id="XMLID_1820_">
<g id="XMLID_1823_">
<g id="Group_13">
<g id="Group_14">
<path id="Vector_7" d="M6.1875 25.8187C5.877 25.8187 5.625 25.623 5.625 25.3125V25.2C5.625 24.8895 5.877 24.6375 6.1875 24.6375C6.498 24.6375 6.75 24.8895 6.75 25.2C6.75 25.5105 6.498 25.8187 6.1875 25.8187Z" fill="white"/>
</g>
</g>
</g>
<g id="XMLID_1822_">
<g id="Group_15">
<g id="Group_16">
<path id="Vector_8" d="M6.1875 28.0687C5.877 28.0687 5.625 27.873 5.625 27.5625V27.45C5.625 27.1395 5.877 26.8875 6.1875 26.8875C6.498 26.8875 6.75 27.1395 6.75 27.45C6.75 27.7605 6.498 28.0687 6.1875 28.0687Z" fill="white"/>
</g>
</g>
</g>
<g id="XMLID_1821_">
<g id="Group_17">
<g id="Group_18">
<path id="Vector_9" d="M6.1875 30.3187C5.877 30.3187 5.625 30.123 5.625 29.8125V29.7C5.625 29.3895 5.877 29.1375 6.1875 29.1375C6.498 29.1375 6.75 29.3895 6.75 29.7C6.75 30.0105 6.498 30.3187 6.1875 30.3187Z" fill="white"/>
</g>
</g>
</g>
</g>
<g id="XMLID_1815_">
<g id="Group_19">
<g id="Group_20">
<path id="Vector_10" d="M27.9461 30.375C27.9067 30.375 27.8663 30.3716 27.8269 30.3626C27.5231 30.2974 27.3307 29.9981 27.396 29.6944L27.7672 27.9731C27.8122 27.7616 27.9754 27.5963 28.1846 27.5456C28.7156 27.4174 29.2331 27.2014 29.7225 26.9032C29.9036 26.7907 30.1365 26.7941 30.3176 26.9089L31.4314 27.621L32.121 26.9257L31.4089 25.821C31.2919 25.6399 31.2896 25.407 31.401 25.2236C31.6991 24.7342 31.9151 24.2168 32.0423 23.6858C32.0929 23.4765 32.2571 23.3145 32.4675 23.2672L33.75 22.9826V22.0185L32.4686 21.7339C32.2583 21.6866 32.094 21.5246 32.0434 21.3154C31.9162 20.7844 31.6991 20.2669 31.4021 19.7775C31.2896 19.5941 31.2919 19.3624 31.4089 19.1812L32.1221 18.0664L31.4336 17.3779L30.3188 18.0911C30.1376 18.207 29.9059 18.2093 29.7236 18.0968C29.2331 17.7986 28.7156 17.5826 28.1858 17.4544C27.9754 17.4038 27.8134 17.2373 27.7684 17.0269L27.4916 15.75H27C26.6895 15.75 26.4375 15.498 26.4375 15.1875C26.4375 14.877 26.6895 14.625 27 14.625H27.945C28.2094 14.625 28.4389 14.8106 28.494 15.0694L28.7944 16.4565C29.2061 16.5814 29.61 16.7501 29.9993 16.9605L31.2075 16.1876C31.4302 16.0459 31.7205 16.0774 31.9084 16.2641L33.237 17.5916C33.4238 17.7784 33.4553 18.0698 33.3124 18.2925L32.5395 19.5007C32.7499 19.8911 32.9186 20.295 33.0435 20.7079L34.4329 21.0161C34.6916 21.0735 34.875 21.303 34.875 21.5662V23.4338C34.875 23.697 34.6916 23.9265 34.434 23.9828L33.0446 24.291C32.9197 24.7039 32.751 25.1077 32.5406 25.497L33.3124 26.694C33.4564 26.9156 33.426 27.2081 33.2392 27.3949L31.9106 28.7336C31.7227 28.9215 31.4314 28.953 31.2086 28.8113L30.0004 28.0384C29.61 28.2488 29.2073 28.4175 28.7955 28.5424L28.4951 29.9295C28.4378 30.195 28.2037 30.375 27.9461 30.375Z" fill="white"/>
</g>
</g>
</g>
<g id="XMLID_1810_">
<g id="Group_21">
<g id="Group_22">
<path id="Vector_11" d="M28.5652 25.4002C28.3852 25.4002 28.2074 25.3125 28.0983 25.1516C27.9251 24.894 27.9937 24.5441 28.2524 24.3709C28.8768 23.9501 29.2503 23.2504 29.2503 22.5C29.2503 21.2591 28.2412 20.25 27.0003 20.25C26.8473 20.25 26.6954 20.2658 26.5503 20.295C26.2488 20.3558 25.9484 20.1622 25.8854 19.8562C25.8236 19.5514 26.0193 19.2544 26.3242 19.1925C26.5447 19.1486 26.7719 19.125 27.0003 19.125C28.8611 19.125 30.3753 20.6393 30.3753 22.5C30.3753 23.6261 29.8162 24.6746 28.8779 25.3046C28.7823 25.3688 28.6732 25.4002 28.5652 25.4002Z" fill="white"/>
</g>
</g>
</g>
<g id="XMLID_1293_">
<g id="Group_23">
<g id="Group_24">
<path id="Vector_12" d="M9 16.8749C7.13925 16.8749 5.625 15.3607 5.625 13.4999C5.625 12.3693 6.1875 11.3197 7.13025 10.6897C7.38562 10.5187 7.73663 10.5862 7.90988 10.846C8.082 11.1037 8.01225 11.4535 7.7535 11.6257C7.12575 12.0464 6.75 12.7462 6.75 13.4999C6.75 14.7408 7.75912 15.7499 9 15.7499C9.15075 15.7499 9.29925 15.7353 9.441 15.706C9.73913 15.6442 10.0417 15.841 10.1036 16.147C10.1655 16.4519 9.9675 16.7478 9.66262 16.8085C9.44775 16.8524 9.22725 16.8749 9 16.8749Z" fill="white"/>
</g>
</g>
</g>
<g id="XMLID_1811_">
<g id="Group_25">
<g id="Group_26">
<path id="Vector_13" d="M9 21.3749H8.055C7.79062 21.3749 7.56112 21.1893 7.506 20.9306L7.20563 19.5434C6.79388 19.4186 6.39 19.2498 6.00075 19.0394L4.7925 19.8123C4.56863 19.9541 4.2795 19.9237 4.09163 19.7358L2.763 18.4083C2.57625 18.2216 2.54475 17.9302 2.68762 17.7074L3.4605 16.4992C3.25012 16.1088 3.08138 15.7049 2.9565 15.2921L1.56713 14.9838C1.30838 14.9264 1.125 14.6969 1.125 14.4337V12.5662C1.125 12.3029 1.30837 12.0734 1.566 12.0172L2.95538 11.7089C3.08025 11.2961 3.249 10.8922 3.45938 10.5029L2.68875 9.30481C2.54475 9.08319 2.57512 8.79069 2.76187 8.60394L4.0905 7.26519C4.27612 7.07619 4.56863 7.04469 4.7925 7.18756L6.00075 7.96044C6.39113 7.75006 6.79388 7.58131 7.20563 7.45644L7.506 6.06931C7.57125 5.76444 7.87612 5.57094 8.17425 5.63844C8.478 5.70369 8.67038 6.00294 8.60513 6.30669L8.23387 8.02794C8.18887 8.23944 8.02575 8.40481 7.8165 8.45544C7.2855 8.58369 6.768 8.79969 6.2775 9.09781C6.09525 9.21031 5.8635 9.20694 5.68237 9.09219L4.56862 8.38006L3.87788 9.07531L4.59 10.1801C4.70812 10.3612 4.71037 10.5941 4.59787 10.7774C4.29975 11.2668 4.08375 11.7843 3.95662 12.3153C3.906 12.5246 3.74175 12.6866 3.53137 12.7338L2.25 13.0173V13.9814L3.53137 14.2661C3.74175 14.3133 3.906 14.4753 3.95662 14.6846C4.08375 15.2156 4.30087 15.7331 4.59787 16.2224C4.71037 16.4058 4.70812 16.6376 4.59112 16.8187L3.87788 17.9324L4.56638 18.6209L5.68125 17.9077C5.86238 17.7929 6.09525 17.7907 6.27637 17.9021C6.76687 18.2002 7.28438 18.4162 7.81425 18.5444C8.02463 18.5951 8.18663 18.7616 8.23163 18.9719L8.50838 20.2499H9C9.3105 20.2499 9.5625 20.5019 9.5625 20.8124C9.5625 21.1229 9.3105 21.3749 9 21.3749Z" fill="white"/>
</g>
</g>
</g>
<g id="XMLID_1813_">
<g id="XMLID_1890_">
<g id="Group_27">
<g id="Group_28">
<path id="Vector_14" d="M17.4376 20.8126C17.3926 20.8126 17.3476 20.807 17.3015 20.7957C16.9989 20.7204 16.8166 20.4155 16.892 20.114L18.017 15.614C18.0912 15.3114 18.3916 15.1291 18.6987 15.2045C19.0014 15.2799 19.1836 15.5847 19.1082 15.8862L17.9832 20.3862C17.9202 20.6427 17.6907 20.8126 17.4376 20.8126Z" fill="white"/>
</g>
</g>
</g>
<g id="XMLID_1888_">
<g id="Group_29">
<g id="Group_30">
<path id="Vector_15" d="M20.8128 20.8126C20.6688 20.8126 20.5248 20.7575 20.4145 20.6484C20.1952 20.429 20.1952 20.0724 20.4145 19.853L22.2674 18.0001L20.4157 16.1484C20.1963 15.929 20.1963 15.5724 20.4157 15.353C20.635 15.1336 20.9917 15.1336 21.211 15.353L23.461 17.603C23.6804 17.8224 23.6804 18.179 23.461 18.3984L21.211 20.6484C21.1008 20.7575 20.9568 20.8126 20.8128 20.8126Z" fill="white"/>
</g>
</g>
</g>
<g id="XMLID_1887_">
<g id="Group_31">
<g id="Group_32">
<path id="Vector_16" d="M15.1878 20.8124C15.0438 20.8124 14.8998 20.7573 14.7895 20.6481L12.5395 18.3981C12.3202 18.1788 12.3202 17.8221 12.5395 17.6028L14.7895 15.3528C15.0089 15.1334 15.3655 15.1334 15.5849 15.3528C15.8043 15.5721 15.8043 15.9288 15.5849 16.1481L13.7332 17.9999L15.5849 19.8516C15.8043 20.071 15.8043 20.4276 15.5849 20.647C15.4758 20.7573 15.3318 20.8124 15.1878 20.8124Z" fill="white"/>
</g>
</g>
</g>
</g>
</g>
</g>
</g>
</svg>
